<?xml version="1.0" encoding="iso-8859-1"?>
<!-- Generator: Adobe Illustrator 22.1.0, SVG Export Plug-In . SVG Version: 6.00 Build 0)  -->
<svg version="1.1" id="&#x421;&#x43B;&#x43E;&#x439;_1"
	 xmlns="http://www.w3.org/2000/svg" xmlns:xlink="http://www.w3.org/1999/xlink" x="0px" y="0px" viewBox="0 0 112.718 147.023"
	 style="enable-background:new 0 0 112.718 147.023;" xml:space="preserve">
<g>
	<g>
		<path style="fill:#5A4A42;" d="M170.67,265.352c1.714,0,2.959-0.711,2.959-1.704c0-0.983-0.889-1.453-2.186-1.453
			c-0.805,0-1.589,0.252-2.163,0.524l-0.188-0.461c0.711-0.365,1.537-0.575,2.436-0.575c1.62,0,2.75,0.659,2.75,1.892
			c0,1.036-0.899,1.747-2.207,1.965v0.021c1.642,0.125,2.613,0.794,2.613,2.049c0,1.547-1.6,2.257-3.48,2.257
			c-0.879,0-1.736-0.157-2.477-0.502l0.209-0.48c0.679,0.282,1.504,0.48,2.309,0.48c1.819,0,2.802-0.773,2.802-1.755
			c0-1.391-1.715-1.767-3.387-1.767h-0.387v-0.492H170.67z"/>
		<path style="fill:#5A4A42;" d="M184.896,268.353c0,0.459,0.03,1.056,0.125,1.495h-0.576l-0.115-1.066h-0.01
			c-0.355,0.471-1.202,1.086-2.426,1.086c-1.504,0-1.985-0.919-1.985-1.526c0-1.265,1.285-2.153,4.38-2.101
			c0-0.774-0.293-1.809-1.829-1.809c-0.669,0-1.327,0.157-1.913,0.575l-0.221-0.45c0.754-0.471,1.59-0.586,2.176-0.586
			c2.404,0,2.395,1.892,2.395,2.582V268.353z M184.299,266.68c-1.975-0.032-3.783,0.418-3.783,1.526
			c0,0.774,0.679,1.191,1.432,1.191c1.558,0,2.352-1.066,2.352-1.442V266.68z"/>
		<path style="fill:#5A4A42;" d="M191.543,264.098h4.379v0.48h-3.783v5.269h-0.596V264.098z"/>
		<path style="fill:#5A4A42;" d="M201.588,266.983c0-1.914,1.41-3.011,2.968-3.011c1.788,0,2.928,1.266,2.928,2.875
			c0,2.133-1.62,3.021-2.989,3.021C202.747,269.868,201.588,268.603,201.588,266.983z M206.866,266.878
			c0-1.076-0.7-2.435-2.311-2.435c-1.558,0-2.352,1.213-2.352,2.499c0,1.526,1.056,2.456,2.31,2.456
			C205.695,269.398,206.866,268.488,206.866,266.878z"/>
		<path style="fill:#5A4A42;" d="M212.917,265.907c0-0.597-0.011-1.318-0.042-1.924h0.586l0.031,1.275h0.031
			c0.396-0.742,1.191-1.286,2.32-1.286c1.642,0,2.676,1.296,2.676,2.833c0,2.019-1.285,3.063-2.812,3.063
			c-0.889,0-1.693-0.355-2.153-1.118h-0.02v3.449h-0.617V265.907z M213.534,267.474c0,1.056,1.013,1.903,2.122,1.903
			c1.338,0,2.248-1.036,2.248-2.551c0-1.254-0.816-2.362-2.186-2.362c-1.631,0-2.185,1.463-2.185,1.985V267.474z"/>
		<path style="fill:#5A4A42;" d="M223.536,266.983c0-1.914,1.411-3.011,2.968-3.011c1.789,0,2.928,1.266,2.928,2.875
			c0,2.133-1.619,3.021-2.989,3.021C224.695,269.868,223.536,268.603,223.536,266.983z M228.814,266.878
			c0-1.076-0.7-2.435-2.311-2.435c-1.557,0-2.351,1.213-2.351,2.499c0,1.526,1.055,2.456,2.31,2.456
			C227.644,269.398,228.814,268.488,228.814,266.878z"/>
		<path style="fill:#5A4A42;" d="M240.051,264.098v5.184h0.7l-0.052,2.217h-0.491l-0.053-1.756h-5.394l-0.032,1.756h-0.513
			l-0.051-2.217h0.574c0.471-0.669,1.141-1.641,1.141-3.679v-1.505H240.051z M236.444,265.645c0,0.919-0.157,1.755-0.429,2.478
			c-0.167,0.439-0.376,0.794-0.617,1.149h4.057v-4.704h-3.011V265.645z"/>
		<path style="fill:#5A4A42;" d="M245.883,263.983h0.605v2.53h3.879v-2.53h0.605v5.865h-0.605v-2.844h-3.879v2.844h-0.605V263.983z"
			/>
		<path style="fill:#5A4A42;" d="M256.963,263.983v2.153c0.355-0.042,0.825-0.062,1.211-0.062c1.318,0,2.928,0.429,2.928,1.85
			c0,0.554-0.23,0.951-0.596,1.233c-0.658,0.544-1.684,0.648-2.676,0.648c-0.617,0-1.129-0.053-1.463-0.084v-5.738H256.963z
			 M256.963,269.304c0.291,0.01,0.596,0.042,1.045,0.042c1.285,0,2.498-0.345,2.498-1.39c0-1.098-1.296-1.423-2.53-1.423
			c-0.345,0-0.657,0.021-1.013,0.053V269.304z M261.854,263.993h0.596v5.855h-0.596V263.993z"/>
		<path style="fill:#5A4A42;" d="M267.832,263.983h0.586v2.905c0,0.899,0,1.453-0.064,2.269l0.053,0.01
			c0.46-0.699,0.741-1.181,1.285-1.892l2.54-3.293h0.689v5.865h-0.585v-2.948c0-0.962,0.011-1.516,0.064-2.237h-0.084
			c-0.522,0.742-0.941,1.39-1.411,1.997c-0.679,0.836-1.61,2.153-2.446,3.189h-0.627V263.983z M272.035,261.819
			c-0.054,0.878-0.711,1.306-1.684,1.306c-1.182,0-1.578-0.617-1.631-1.306h0.512c0.053,0.543,0.366,0.919,1.129,0.919
			c0.826,0,1.077-0.377,1.161-0.919H272.035z"/>
		<path style="fill:#5A4A42;" d="M282.057,263.983h0.596v2.665h0.324l3.209-2.665h0.868l-3.388,2.728
			c1.266,0.094,2.039,0.689,2.666,1.819c0.166,0.324,0.492,0.909,0.794,1.318h-0.7c-0.197-0.252-0.543-0.837-0.753-1.223
			c-0.814-1.516-2.143-1.516-3.021-1.516v2.739h-0.596V263.983z"/>
		<path style="fill:#5A4A42;" d="M292.415,266.983c0-1.914,1.411-3.011,2.969-3.011c1.788,0,2.927,1.266,2.927,2.875
			c0,2.133-1.619,3.021-2.989,3.021C293.575,269.868,292.415,268.603,292.415,266.983z M297.693,266.878
			c0-1.076-0.699-2.435-2.31-2.435c-1.558,0-2.352,1.213-2.352,2.499c0,1.526,1.056,2.456,2.31,2.456
			C296.523,269.398,297.693,268.488,297.693,266.878z"/>
		<path style="fill:#5A4A42;" d="M303.285,264.098h6.084v0.48h-2.772v5.269h-0.605v-5.269h-2.707V264.098z"/>
		<path style="fill:#5A4A42;" d="M314.26,264.098h6.084v0.48h-2.771v5.269h-0.605v-5.269h-2.707V264.098z"/>
		<path style="fill:#5A4A42;" d="M326.184,266.951c-0.011,1.589,1.067,2.436,2.426,2.436c1.015,0,1.495-0.199,1.872-0.366
			l0.156,0.449c-0.199,0.094-0.848,0.397-2.092,0.397c-1.777,0-2.958-1.171-2.958-2.801c0-1.934,1.276-3.095,2.895-3.095
			c2.133,0,2.51,1.809,2.51,2.625c0,0.136,0,0.261-0.031,0.355H326.184z M330.408,266.491c0.011-0.543-0.23-2.069-1.996-2.069
			c-1.484,0-2.102,1.213-2.227,2.069H330.408z"/>
		<path style="fill:#5A4A42;" d="M341.853,264.098v5.184h0.699l-0.052,2.217h-0.491l-0.053-1.756h-5.394l-0.032,1.756h-0.512
			l-0.052-2.217h0.575c0.471-0.669,1.14-1.641,1.14-3.679v-1.505H341.853z M338.246,265.645c0,0.919-0.156,1.755-0.428,2.478
			c-0.168,0.439-0.376,0.794-0.617,1.149h4.057v-4.704h-3.012V265.645z"/>
		<path style="fill:#5A4A42;" d="M351.5,263.983h0.596v2.676h0.24l2.499-2.676h0.742l-2.655,2.738
			c1.056,0.095,1.609,0.544,2.06,1.568c0.177,0.46,0.386,1.056,0.679,1.558h-0.596c-0.271-0.482-0.449-0.952-0.638-1.401
			c-0.565-1.307-1.39-1.348-2.331-1.348v2.75H351.5v-2.75c-0.973,0-1.767,0.042-2.331,1.358c-0.188,0.45-0.365,0.909-0.638,1.391
			h-0.596c0.293-0.513,0.502-1.098,0.68-1.558c0.459-1.014,1.003-1.474,2.059-1.568l-2.654-2.738h0.742l2.498,2.676h0.24V263.983z"
			/>
		<path style="fill:#5A4A42;" d="M359.474,266.262h2.812v0.543h-2.812V266.262z"/>
		<path style="fill:#5A4A42;" d="M366.06,263.983h0.596v2.665h0.323l3.21-2.665h0.867l-3.388,2.728
			c1.266,0.094,2.038,0.689,2.666,1.819c0.167,0.324,0.491,0.909,0.794,1.318h-0.699c-0.199-0.252-0.544-0.837-0.754-1.223
			c-0.814-1.516-2.143-1.516-3.02-1.516v2.739h-0.596V263.983z"/>
		<path style="fill:#5A4A42;" d="M377.463,264.098h4.589v5.75h-0.607v-5.259h-3.397v1.757c0,1.787-0.167,2.833-0.993,3.292
			c-0.23,0.136-0.522,0.23-0.742,0.23l-0.062-0.522c1.182-0.208,1.213-1.537,1.213-2.938V264.098z"/>
		<path style="fill:#5A4A42;" d="M388.209,263.983l1.703,3.826c0.156,0.355,0.355,0.847,0.471,1.213h0.02
			c0.127-0.366,0.283-0.795,0.471-1.254l1.6-3.784h0.648l-2.07,4.787c-0.773,1.747-1.275,2.583-2.027,3.095
			c-0.502,0.355-0.951,0.491-1.066,0.502l-0.156-0.512c1.641-0.429,2.216-2.248,2.216-2.29c0-0.042-0.031-0.126-0.084-0.251
			l-2.393-5.331H388.209z"/>
		<path style="fill:#5A4A42;" d="M403.511,261.819c-0.304,0.115-0.826,0.219-1.234,0.282c-1.923,0.293-2.958,1.056-3.208,3.22h0.031
			c0.439-0.899,1.432-1.35,2.341-1.35c1.505,0,2.697,1.066,2.697,2.844c0,1.787-0.952,3.052-2.823,3.052
			c-1.975,0-2.822-1.714-2.822-3.805c0-3.846,2.52-4.265,3.639-4.453c0.469-0.083,0.972-0.199,1.4-0.344L403.511,261.819z
			 M401.325,264.432c-1.015,0-2.163,0.742-2.163,2.279c0,0.961,0.564,2.687,2.185,2.687c1.558,0,2.175-1.233,2.175-2.509
			C403.521,265.875,403.04,264.432,401.325,264.432z"/>
	</g>
	<g>
		<path style="fill:#007236;" d="M285.721,201.304c-0.667,3.134-1.367,5.434-2.1,6.9c-1.601,3.067-4,4.6-7.2,4.6
			c-1.534,0-3-0.466-4.4-1.4c-1.067,0.6-2.167,0.9-3.3,0.9c-1.935,0-3.534-0.866-4.8-2.6v2.2c-0.067,6.066-0.034,11.066,0.1,15
			c0.133,4.333,0.2,6.865,0.2,7.6c0,1.533-0.467,2.3-1.4,2.3s-1.399-0.734-1.399-2.2c0-0.4,0.133-2.834,0.399-7.3
			c0.2-4.134,0.266-9.367,0.2-15.7v-29.1c0-0.2,0-0.465,0-0.8c0-0.333,0-0.565,0-0.7c0-1.933,0.533-2.9,1.601-2.9
			c1.065,0,1.6,0.535,1.6,1.6c0,0.267-0.034,0.667-0.1,1.2c-0.067,0.534-0.101,0.9-0.101,1.1c0,0.2,0,0.467,0,0.8
			c1.666-3.133,3.766-4.7,6.3-4.7c2,0,3.733,1.435,5.2,4.3c1.601,3.134,2.4,7.067,2.4,11.8c0,7.2-1.768,12.5-5.3,15.9
			c0.8,0.6,1.766,0.9,2.899,0.9c3.533,0,5.933-2.732,7.2-8.2c0.333-1.665,0.7-2.5,1.1-2.5
			C285.554,200.304,285.853,200.638,285.721,201.304z M270.32,210.204c-2.8-2.333-4.867-5.766-6.199-10.3
			c0,0.467-0.035,2.1-0.101,4.9c0.933,3.734,2.633,5.6,5.101,5.6C269.52,210.404,269.921,210.338,270.32,210.204z M276.02,194.904
			c0-3.666-0.567-6.816-1.7-9.45c-1.134-2.633-2.634-3.95-4.5-3.95c-1.399,0-2.634,0.835-3.699,2.5
			c-1.067,1.668-1.601,3.8-1.601,6.4c0,8.467,2.466,14.667,7.4,18.6C274.653,206.071,276.02,201.371,276.02,194.904z"/>
		<path style="fill:#007236;" d="M299.119,170.804c0,1.8-0.566,6.634-1.699,14.5c-1.135,7.867-1.7,13.467-1.7,16.8
			c0,3.2,0.165,6.65,0.5,10.35c0.333,3.7,0.5,6.65,0.5,8.85c0,13-4.167,19.5-12.5,19.5c-1.935,0-2.9-0.567-2.9-1.7
			c0-0.667,0.266-1.267,0.8-1.8c0.533-0.535,1.133-0.8,1.801-0.8c0.4,0,0.832,0.166,1.3,0.5c0.466,0.333,0.899,0.5,1.3,0.5
			c3.865,0,6.333-2.867,7.4-8.6c0.4-2.135,0.6-6.667,0.6-13.6c0-4.665-0.2-7.533-0.6-8.6c-0.2,1.4-0.7,2.967-1.5,4.7
			c-1.135,2.534-2.335,3.8-3.6,3.8c-1.334,0-2.467-1-3.4-3c-1.2-2.6-1.801-6.333-1.801-11.2v-1.7c0-9.733,0.733-14.6,2.2-14.6
			c0.8,0,1.2,2.1,1.2,6.3c0,1.335-0.217,3.467-0.65,6.4c-0.434,2.934-0.649,4.667-0.649,5.2c0,5.334,1.133,8,3.399,8
			c1.601,0,2.833-1.933,3.7-5.8c0.866-3.466,1.3-7.866,1.3-13.2c0-6.533,0.233-12.533,0.7-18c0.666-7.065,1.565-10.6,2.7-10.6
			C298.585,163.003,299.119,165.604,299.119,170.804z"/>
		<path style="fill:#007236;" d="M325.918,203.003c0,3.135-1.35,6.135-4.05,9c-2.7,2.867-5.617,4.3-8.75,4.3
			c-4.268,0-7.5-1.333-9.7-4c-1.867-2.333-2.8-5.433-2.8-9.3c0-4.732,1.25-9.183,3.75-13.35c2.5-4.166,5.35-6.25,8.55-6.25
			c1.8,0,3.266,0.867,4.4,2.6c0.933,1.6,1.399,3.567,1.399,5.9c0,2.267-0.517,4.234-1.55,5.9c-1.034,1.667-2.484,2.5-4.35,2.5
			c-0.601,0-0.9-0.233-0.9-0.7c0-0.465,0.333-0.7,1-0.7c0.933,0,1.7-0.766,2.3-2.3c0.601-1.533,0.9-3.3,0.9-5.3
			c0-4.333-1.135-6.5-3.4-6.5c-2.334,0-4.384,1.884-6.149,5.65c-1.768,3.767-2.65,7.784-2.65,12.05c0,8,2.9,12,8.7,12
			c3.2,0,5.899-1.365,8.1-4.1c1.733-2,2.933-4.4,3.601-7.2c0.199-1,0.532-1.5,1-1.5
			C325.718,201.704,325.918,202.138,325.918,203.003z"/>
		<path style="fill:#007236;" d="M326.718,213.104c0,1.867,0,3.05,0,3.55s-0.3,0.75-0.899,0.75c-0.867,0-1.301-0.635-1.301-1.9v-8.9
			c-0.066-2.333-0.1-4.333-0.1-6c0-1.666,0-3.033,0-4.1c0-13.933,0.832-20.9,2.5-20.9c0.666,0,1,1.7,1,5.1
			c0,0.467-0.051,1.334-0.15,2.6c-0.1,1.267-0.284,2.934-0.55,5c-0.335,2.934-0.534,5.267-0.601,7l5.801-0.7
			c0.065-1,0.15-2.05,0.25-3.15c0.1-1.1,0.25-2.35,0.449-3.75c0.201-1.4,0.451-3.016,0.75-4.85c0.301-1.833,0.65-3.95,1.051-6.35
			c0.199-0.8,0.5-1.332,0.9-1.6c0.399-0.266,0.782-0.366,1.149-0.3c0.366,0.067,0.7,0.217,1,0.45c0.3,0.234,0.483,0.45,0.55,0.65
			c-0.135-0.266-0.734,2.634-1.8,8.7c-0.534,3.334-0.95,6.784-1.25,10.35c-0.3,3.567-0.45,7.317-0.45,11.25c0,4.935,0.9,7.4,2.7,7.4
			c1.065,0,2.366-1.3,3.899-3.9c1.066-2.065,1.801-3.933,2.201-5.6c0.199-0.6,0.465-0.9,0.799-0.9c0.601,0,0.9,0.4,0.9,1.2
			c0,0.067-0.034,0.267-0.1,0.6c-0.268,1.4-1.168,3.467-2.7,6.2c-1.867,3.467-3.667,5.2-5.399,5.2c-3.268,0-4.9-6.2-4.9-18.6v-0.8
			l-5.9,0.4v0.7L326.718,213.104z"/>
		<path style="fill:#007236;" d="M367.117,200.503c0,1.867-0.834,4.768-2.5,8.7c-1.867,4.667-3.768,7-5.699,7
			c-2.335,0-3.801-3.133-4.4-9.4c-0.801,5.6-2.4,8.4-4.801,8.4c-3.666,0-5.5-5.065-5.5-15.2c0-4.6,0.4-9.033,1.201-13.3
			c0.799-4.266,1.665-6.4,2.6-6.4c0.732,0,1.1,0.634,1.1,1.9c0,0.334-0.417,2.534-1.25,6.6c-0.834,4.067-1.25,8.667-1.25,13.8
			c0,5.334,1.133,8,3.4,8c2.133,0,3.6-3.1,4.4-9.3c0.332-2.665,0.665-5.366,1-8.1c0.6-4.333,1.332-6.5,2.199-6.5
			c0.6,0,0.9,0.334,0.9,1c0,0.134-0.234,1.8-0.7,5c-0.601,3.734-0.899,7.435-0.899,11.1c0,6.134,0.799,9.2,2.399,9.2
			c1.133,0,2.433-1.7,3.899-5.1c1.334-3,2.066-5.366,2.201-7.1c0.064-0.733,0.299-1.1,0.699-1.1
			C366.783,199.704,367.117,199.971,367.117,200.503z"/>
		<path style="fill:#007236;" d="M367.416,203.304c-0.066,1.467-0.084,2.967-0.05,4.5c0.033,1.534,0.05,2.667,0.05,3.4
			c0,0.867,0.133,1.867,0.4,3c0.266,1.134,0.4,1.834,0.4,2.1c-0.067,0.733-0.268,1.1-0.601,1.1c-1.467,0-2.167-0.635-2.1-1.9
			c0-1.2,0.016-2.715,0.05-4.55c0.033-1.833,0.033-3.766,0-5.8c-0.034-2.033-0.05-4.033-0.05-6c0-1.966,0.032-3.683,0.1-5.15
			c0-3.465,0.101-6.232,0.3-8.3c0.2-2.065,0.416-3.633,0.65-4.7c0.233-1.065,0.483-1.75,0.75-2.05c0.266-0.3,0.533-0.45,0.8-0.45
			c0.333,0,0.5,0.418,0.5,1.25c0,0.835-0.034,2.117-0.1,3.85c0,0.2-0.034,1.067-0.101,2.6c-0.066,1.534-0.167,3.467-0.3,5.8
			c0.466-1.533,1.05-3,1.75-4.4c0.7-1.4,1.483-2.65,2.351-3.75c0.865-1.1,1.732-1.965,2.6-2.6c0.865-0.633,1.666-0.95,2.4-0.95
			c1.532,0,2.782,0.567,3.75,1.7c0.965,1.135,1.449,2.635,1.449,4.5c-0.134,0.668-0.417,1.217-0.85,1.65
			c-0.434,0.434-0.9,0.717-1.4,0.85c-0.5,0.135-0.934,0.067-1.3-0.2c-0.367-0.266-0.484-0.8-0.35-1.6c0.066-2-0.734-3-2.4-3
			c-0.867,0-1.685,0.384-2.45,1.15c-0.767,0.767-1.5,1.767-2.199,3c-0.7,1.234-1.335,2.617-1.9,4.15
			c-0.567,1.535-1.017,3.067-1.35,4.6c1.133-0.866,2.315-1.266,3.55-1.2c1.233,0.067,2.115,0.367,2.649,0.9
			c0.533,0.534,0.833,1.335,0.9,2.4c0.066,1.067,0.1,2.3,0.1,3.7c0,1,0,2.017,0,3.05c0,1.034,0.066,1.95,0.2,2.75
			c0.133,0.8,0.4,1.45,0.8,1.95c0.4,0.5,1,0.75,1.801,0.75c0.665,0,1.383-0.366,2.149-1.1c0.766-0.733,1.483-1.65,2.15-2.75
			c0.665-1.1,1.25-2.266,1.75-3.5c0.5-1.233,0.816-2.316,0.95-3.25c0.133-0.733,0.399-1.1,0.8-1.1c0.665,0,1,0.267,1,0.8
			c-0.067,0.867-0.4,2.185-1,3.95c-0.601,1.767-1.317,3.517-2.15,5.25c-0.834,1.734-1.75,3.25-2.75,4.55c-1,1.3-1.899,1.95-2.7,1.95
			c-1.267,0-2.267-0.45-3-1.35c-0.734-0.9-1.267-2.033-1.6-3.4c-0.334-1.366-0.517-2.9-0.55-4.6c-0.034-1.7-0.017-3.416,0.05-5.15
			c0-1.333-0.234-2.266-0.7-2.8c-0.467-0.533-1-0.8-1.6-0.8c-0.601,0-1.218,0.2-1.851,0.6c-0.634,0.4-1.149,0.9-1.55,1.5
			c0,0.534-0.034,1.05-0.1,1.55C367.449,202.253,367.416,202.771,367.416,203.304z"/>
		<path style="fill:#007236;" d="M410.115,200.503c0,1.8-0.799,4.567-2.4,8.3c-1.867,4.4-3.7,6.6-5.5,6.6
			c-2.667,0-4.167-2.333-4.5-7h-0.2c-3,6.4-5.734,9.6-8.199,9.6c-2.601,0-3.9-2.633-3.9-7.9c0-4.866,1.565-9.5,4.699-13.9
			c2.934-4.2,5.967-6.466,9.1-6.8c0.2-2.133,0.3-3.4,0.3-3.8c0-3.4-1.066-5.1-3.199-5.1c-1.201,0-2.335,0.768-3.4,2.3
			c-1.067,1.534-1.6,3.3-1.6,5.3c0,1.467-0.435,2.2-1.301,2.2c-1,0-1.5-0.733-1.5-2.2c0-1.8,0.816-3.75,2.45-5.85
			c1.633-2.1,3.415-3.15,5.351-3.15c3.799,0,5.699,2.7,5.699,8.1c0,2.134-0.234,5.384-0.699,9.75
			c-0.468,4.367-0.701,7.484-0.701,9.35c0,3.6,0.6,5.4,1.801,5.4c1.266,0,2.565-1.5,3.9-4.5c1.199-2.533,1.865-4.666,2-6.4
			c0.065-0.733,0.365-1.1,0.899-1.1C409.816,199.704,410.115,199.971,410.115,200.503z M399.115,191.304c-2.666,0.4-5.166,2.4-7.5,6
			c-2.334,3.6-3.5,7.3-3.5,11.1c0,2.867,0.834,4.3,2.5,4.3c1.467,0,3.201-1.75,5.201-5.25s3-6.416,3-8.75
			C398.816,196.704,398.916,194.238,399.115,191.304z"/>
		<g>
			<path style="fill:#007236;" d="M209.521,128.484c-1.467,0.8-2.767,2.55-3.899,5.25c-1.135,2.7-2.085,5.885-2.851,9.55
				c-0.767,3.667-1.267,7.534-1.5,11.6c-0.234,4.067-0.134,7.867,0.301,11.4c0.433,3.534,1.215,6.567,2.35,9.1
				c1.133,2.534,2.732,4.034,4.8,4.5c1.601,0.4,3-0.4,4.2-2.4s2.2-5.1,3-9.3c1-5.666,0.933-10.3-0.2-13.9
				c-1-3.6-2.467-5.533-4.399-5.8c-0.468-0.065-0.7-0.4-0.7-1c0.065-0.4,0.333-0.565,0.8-0.5c3,0.6,5.2,3.3,6.6,8.1
				c1.2,4.668,1.4,9.535,0.601,14.6c-0.4,1.935-0.885,3.6-1.45,5c-0.567,1.4-1.317,2.667-2.25,3.8c-1.935,2.2-4.167,3.067-6.7,2.6
				c-4.467-0.665-7.7-4.965-9.7-12.9c-0.867-2.866-1.399-5.983-1.6-9.35c-0.2-3.366-0.084-6.715,0.35-10.05
				c0.434-3.333,1.2-6.55,2.301-9.65c1.1-3.1,2.55-5.783,4.35-8.05c1.6-2.065,3.3-3.533,5.1-4.4c1.801-0.866,3.766-1.1,5.9-0.7
				c2.333,0.467,4.732,1.217,7.2,2.25c2.466,1.035,4.966,2.15,7.5,3.35l-0.101-2c0-0.065,0-0.183,0-0.35
				c0-0.165-0.034-0.383-0.1-0.65v-1.1c0-2.533,0.565-3.8,1.7-3.8c2,0,3,1.834,3,5.5v4.7c1.133,0.534,2.25,1.1,3.35,1.7
				c1.101,0.6,2.183,1.1,3.25,1.5c4.666,1.734,8.766,1.884,12.3,0.45c3.533-1.433,6.366-4.55,8.5-9.35
				c0.066-0.133,0.166-0.183,0.301-0.15c0.133,0.034,0.266,0.05,0.399,0.05c0.065,0,0.166,0.1,0.3,0.3l0.101,0.2
				c-1.2,3.6-3.101,6.55-5.7,8.85c-2.6,2.3-5.935,3.45-10,3.45c-2.067,0-4.185-0.166-6.35-0.5c-2.168-0.333-4.351-0.933-6.551-1.8
				c0,1.867-0.017,3.817-0.05,5.85c-0.034,2.034-0.084,4.45-0.149,7.25h1.199c3.666,0,7.033,0.7,10.101,2.1
				c3.065,1.4,5.716,3.4,7.95,6c2.232,2.6,3.965,5.734,5.199,9.4c1.233,3.667,1.851,7.734,1.851,12.2c0,4.2-0.567,8.25-1.7,12.15
				c-1.135,3.9-2.7,7.35-4.7,10.35s-4.35,5.383-7.05,7.15c-2.7,1.766-5.617,2.65-8.75,2.65c-1.8,0-3.534-0.367-5.2-1.1
				c0,3.333-0.467,5-1.399,5c-0.935,0-1.4-1.967-1.4-5.9c-2.734-2.335-4.1-5.435-4.1-9.3c0-0.8,0.232-1.2,0.699-1.2
				c0.333,1.133,0.633,2.1,0.9,2.9c0.266,0.8,0.615,1.633,1.05,2.5c0.433,0.866,0.95,1.6,1.55,2.2
				c0.266-9.267,0.45-16.516,0.551-21.75c0.1-5.233,0.149-8.616,0.149-10.15c-0.067-6.666-0.134-12.7-0.2-18.1
				c-0.066-5.4-0.199-10.533-0.399-15.4l-0.3-6.6c-2-0.933-3.95-1.966-5.851-3.1c-1.899-1.133-3.734-2.15-5.5-3.05
				c-1.767-0.9-3.399-1.583-4.899-2.05C212.072,128.119,210.722,128.085,209.521,128.484z M232.822,210.085
				c1.465,0.733,3.232,1.1,5.3,1.1c2.399,0,4.7-0.884,6.899-2.65c2.2-1.767,4.133-4.1,5.801-7c1.665-2.9,2.982-6.25,3.949-10.05
				c0.966-3.8,1.45-7.7,1.45-11.7c0-3.933-0.5-7.533-1.5-10.8c-1-3.266-2.417-6.065-4.25-8.4c-1.834-2.332-4.017-4.15-6.55-5.45
				c-2.534-1.3-5.334-1.95-8.4-1.95h-1.699c-0.135,6.867-0.285,15-0.45,24.4C233.205,186.984,233.021,197.819,232.822,210.085z"/>
			<path style="fill:#007236;" d="M245.318,163.692c-0.752-1.03-3.793,0.159-3.03,1.202c2.134,2.92,3.495,6.439,1.862,9.617
				c-2.668,5.192-8.542,2.918-11.341,0.072c-4.626-4.704-9.748-17.213-1.35-21.023c1.173-0.532,0.155-2.255-1.01-1.727
				c-11.178,5.071-3.067,20.424,3.582,25.546C243.012,184.296,250.932,171.376,245.318,163.692z"/>
		</g>
	</g>
	<g>
		<g>
			<defs>
				<path id="SVGID_1_" d="M175.174,103.436c-0.939,0.153-1.92,0.628-2.615,0.999c-0.566,0.317-1.174,0.816-1.686,1.205
					c-1.382,1.054-2.556,2.378-3.519,3.929c-1.399,2.254-2.355,4.986-2.865,8.067c-1.934,11.654,2.164,24.025,7.732,34.125
					c6.609,11.932,15.736,20.676,24.368,24.348c2.874,1.223,5.693,1.884,8.345,1.913c1.826,0.021,3.573-0.258,5.205-0.86
					c0.602-0.222,1.189-0.488,1.758-0.798c0.633-0.36,0.676-0.352,0.691-0.344c0.017,0.008,0.005,0.016,0.602-0.392
					c5.459-3.73,6.125-8.506,6.761-12.344c1.536-9.253-0.941-21.648-7.46-33.629l-0.137-0.249
					c-6.619-12.059-15.815-20.897-24.504-24.594c-2.561-1.089-6.012-1.639-9.148-1.639
					C177.45,103.173,176.249,103.26,175.174,103.436"/>
			</defs>
			<clipPath id="SVGID_2_">
				<use xlink:href="#SVGID_1_"  style="overflow:visible;"/>
			</clipPath>
			<g style="clip-path:url(#SVGID_2_);">
				<path style="fill:#007B3A;" d="M175.035,103.653c3.003-1.118,5.797-1.029,8.675-0.165c1.561,0.433,1.846,0.641,2.768,0.985
					c6.818,2.538,12.412,6.779,17.148,12.114c9.864,11.112,15.875,24.038,17.278,38.915c0.457,4.853-0.019,9.731-1.812,14.305
					c-1.783,4.549-5.523,7.105-9.977,8.726c-2.579,0.952-5.259,0.755-7.68,0c-7.453-2.601-13.905-6.721-19.11-12.696
					c-10.995-12.619-18.247-26.75-17.866-44.006C164.636,113.784,167.416,107.331,175.035,103.653z M189.422,169.907
					c0.083,0.569,0.399,0.891,0.983,0.929c0.163,0.161,0.325,0.322,0.487,0.483c2.148,2.294,4.855,3.621,7.869,4.238
					c3.618,0.741,5.801-0.878,6.476-4.584c0.114-0.626,0.136-1.268,0.247-1.895c0.261-1.476,1.062-2.285,2.655-2.053
					c0.162,0.319,0.324,0.638,0.486,0.958c0.253,0.659,0.466,1.338,0.77,1.973c0.263,0.55,0.504,1.295,1.314,1.112
					c0.764-0.173,0.778-0.897,0.801-1.537c0.021-0.56,0.001-1.112-0.426-1.55c-0.16-0.792-0.32-1.583-0.48-2.375
					c2.895-3.166,3.416-7.252,3.116-11.083c-0.305-3.902-1.497-7.883-3.052-11.506c-3.015-7.024-6.282-13.997-11.318-19.881
					c-2.271-2.653-4.533-5.415-7.59-7.229c-3.63-2.154-7.753-3.352-11.312-5.681c-0.841-0.55-1.857-1.241-2.88-0.488
					c-1.11,0.816-0.401,1.891-0.118,2.85c0.84,2.845,0.685,2.854-2.18,2.708c-2.313-0.118-4.954-1.057-6.92,0.687
					c-1.78,1.58-2.999,3.734-2.902,6.312c0.17,4.532,0.273,9.116,1.484,13.488c2.13,7.689,5.172,15.038,9.889,21.544
					c0.846,1.166,1.422,3.011,3.433,2.992c0.3,0.009,0.601,0.018,0.901,0.027c0.035,0.305,0.07,0.61,0.106,0.915
					c-0.832,0.839-0.192,1.443,0.363,2.005c1.946,1.972,3.922,3.916,5.874,5.882C188.038,169.69,188.672,169.928,189.422,169.907z"
					/>
				<path style="fill:#1F9541;" d="M190.893,171.32c-0.163-0.161-0.325-0.322-0.488-0.483c0.007-0.321,0.013-0.643,0.02-0.964
					c0.921-0.042,1.67,0.478,2.498,0.746c2.684,0.868,4.565-0.563,4.103-3.319c-0.897-5.342-2.231-10.564-4.395-15.578
					c-2.191-5.078-4.931-9.809-7.926-14.444c-3.345-5.177-7.564-9.392-12.774-12.618c-2.521-1.561-3.71-0.869-4.077,2.14
					c-0.171,1.4,0.409,2.881-0.454,4.205c-1.116-2.919-0.508-5.954-0.445-8.917c0.071-3.343,2.022-4.196,4.995-2.58
					c3.983,2.165,7.772,4.608,11.354,7.392c0.747,0.581,1.595,1.652,2.72,0.986c0.978-0.579,0.379-1.753,0.545-2.65
					c3.006,3.417,5.082,7.441,7.199,11.402c2.986,5.586,6.46,10.932,8.64,16.931c-2.701-1.039-3.24-0.775-2.834,2.175
					c0.659,4.784,1.486,9.524,1.535,14.387c0.015,1.561,0.488,3.178-1.013,4.034c-1.267,0.722-2.698,0.053-3.995-0.621
					C194.426,172.672,192.884,171.459,190.893,171.32z"/>
				<path style="fill:#00883F;" d="M186.568,125.234c-0.167,0.898,0.432,2.072-0.546,2.65c-1.125,0.666-1.973-0.405-2.72-0.986
					c-3.582-2.785-7.37-5.227-11.354-7.392c-2.972-1.615-4.924-0.763-4.995,2.58c-0.063,2.963-0.672,5.998,0.444,8.917
					c0.01,0.397-0.058,0.815,0.042,1.188c1.833,6.824,3.882,13.592,7.418,19.749c1.223,2.128,2.164,4.605,4.478,5.972
					c0.309,0.327,0.617,0.655,0.926,0.982c-0.003,0.475-0.006,0.949-0.009,1.424c-2.01,0.019-2.586-1.826-3.432-2.992
					c-4.716-6.506-7.759-13.855-9.889-21.544c-1.211-4.372-1.313-8.955-1.484-13.488c-0.097-2.578,1.122-4.733,2.902-6.312
					c1.966-1.744,4.607-0.805,6.92-0.687c2.865,0.146,3.02,0.137,2.18-2.708c-0.283-0.959-0.992-2.034,0.118-2.85
					c1.023-0.753,2.039-0.062,2.88,0.488c3.559,2.329,7.682,3.527,11.312,5.681c3.057,1.814,5.319,4.575,7.59,7.229
					c5.036,5.884,8.303,12.857,11.318,19.881c1.555,3.624,2.747,7.605,3.052,11.506c0.3,3.831-0.222,7.917-3.117,11.083
					c-0.661-3.927-1.415-7.84-1.963-11.783c-1.101-7.934-3.775-15.253-7.983-22.072c-4.087-6.624-9.968-11.533-15.56-16.725
					c-1.456-1.351-3.098-2.502-4.662-3.735c-0.469-0.37-1.018-0.533-1.562-0.218c-0.49,0.284-0.564,0.86-0.341,1.273
					c1.19,2.194,1.55,4.952,4.139,6.213c0.387,1.149,0.925,2.191,2.009,2.849C184.924,122.874,186.485,123.69,186.568,125.234z"/>
				<path style="fill:#77B83F;" d="M180.263,158.895c-0.309-0.327-0.617-0.655-0.926-0.982c0.208-2.146-1.656-3.174-2.594-4.679
					c-2.124-3.408-3.319-7.234-5.114-10.784c-1.265-2.501-1.542-5.177-1.354-7.901c0.148-2.148,1.207-2.561,2.974-1.242
					c0.954,0.712,1.954,1.413,2.74,2.291c6.588,7.37,10.693,16.112,13.851,25.361c0.203,0.596,0.227,1.251,0.365,1.871
					c0.157,0.707,0.412,1.476-0.249,2.002c-0.564,0.449-1.195-0.017-1.812-0.121c-1.591-0.268-2.761-1.664-4.457-1.591
					c-0.999-0.371-1.1-1.914-2.425-1.861c-0.035-0.305-0.07-0.61-0.105-0.916C182.123,159.08,181.033,159.087,180.263,158.895z"/>
				<path style="fill:#1F9541;" d="M182.674,118.558c-2.589-1.261-2.949-4.02-4.139-6.213c-0.224-0.412-0.15-0.988,0.341-1.273
					c0.544-0.315,1.092-0.152,1.562,0.218c1.564,1.233,3.207,2.384,4.662,3.735c5.592,5.192,11.473,10.102,15.56,16.725
					c4.208,6.819,6.882,14.139,7.983,22.072c0.547,3.942,1.301,7.856,1.963,11.783c0.161,0.792,0.321,1.583,0.48,2.375
					c-0.819,0.562-1.64,0.126-2.459,0.003c-0.162-0.319-0.324-0.638-0.486-0.958c0.069-2.018-2.215-3.187-1.909-5.29
					c0.632,0.196,1.072,1.177,1.885,0.571c0.691-0.515,0.437-1.258,0.311-1.981c-0.466-2.679-1.446-5.22-2.083-7.845
					c-2.829-11.647-8.511-21.66-16.778-30.297c-1.543-1.612-2.93-3.306-4.898-4.465
					C183.433,116.993,182.935,117.314,182.674,118.558z"/>
				<path style="fill:#00883F;" d="M206.232,161.736c-0.306,2.104,1.978,3.272,1.909,5.29c-1.593-0.232-2.394,0.577-2.655,2.053
					c-0.111,0.627-0.133,1.269-0.247,1.895c-0.676,3.706-2.858,5.325-6.476,4.584c-3.014-0.617-5.721-1.944-7.869-4.238
					c1.991,0.14,3.534,1.352,5.207,2.223c1.296,0.675,2.728,1.344,3.995,0.621c1.502-0.856,1.029-2.473,1.013-4.034
					c-0.048-4.863-0.876-9.604-1.535-14.387c-0.406-2.95,0.133-3.213,2.834-2.174c0.445,0.881,1.013,1.715,1.048,2.752
					c-0.077,0.649,0.219,1.006,0.857,1.095c0.143,0.025,0.286,0.044,0.43,0.057C205.231,158.896,206.144,160.172,206.232,161.736z"
					/>
				<path style="fill:#00883F;" d="M181.262,161.26c1.325-0.053,1.425,1.49,2.424,1.861c0.82,1.428,2.075,2.436,3.323,3.453
					c0.243,1.521,1.819,2.059,2.436,3.304l-0.023,0.029c-0.749,0.021-1.384-0.218-1.923-0.761c-1.952-1.966-3.928-3.91-5.874-5.882
					C181.071,162.703,180.43,162.099,181.262,161.26z"/>
				<path style="fill:#00883F;" d="M208.626,167.984c0.82,0.123,1.64,0.559,2.459-0.003c0.427,0.439,0.448,0.991,0.427,1.551
					c-0.024,0.641-0.037,1.365-0.801,1.537c-0.811,0.183-1.052-0.562-1.314-1.112C209.093,169.322,208.879,168.643,208.626,167.984z
					"/>
				<path style="fill:#53A641;" d="M180.263,158.895c0.77,0.191,1.86,0.185,0.895,1.449c-0.301-0.008-0.602-0.017-0.903-0.026
					C180.257,159.844,180.26,159.37,180.263,158.895z"/>
				<path style="fill:#00883F;" d="M190.425,169.872c-0.007,0.322-0.014,0.643-0.02,0.965c-0.584-0.039-0.9-0.361-0.983-0.929
					c0,0,0.023-0.028,0.023-0.028c0.322-0.005,0.645-0.009,0.967-0.014C190.412,169.865,190.425,169.872,190.425,169.872z"/>
				<path style="fill:#53A641;" d="M187.009,166.574c-1.247-1.016-2.502-2.025-3.323-3.453c1.696-0.074,2.866,1.322,4.457,1.59
					c0.616,0.104,1.247,0.57,1.812,0.121c0.661-0.526,0.405-1.296,0.249-2.002c-0.137-0.621-0.161-1.276-0.365-1.871
					c-3.158-9.249-7.263-17.991-13.851-25.361c-0.786-0.879-1.786-1.58-2.74-2.291c-1.767-1.319-2.826-0.906-2.974,1.242
					c-0.188,2.724,0.089,5.399,1.354,7.901c1.795,3.549,2.99,7.376,5.114,10.784c0.938,1.505,2.803,2.533,2.594,4.679
					c-2.314-1.366-3.255-3.844-4.478-5.972c-3.537-6.156-5.585-12.925-7.418-19.749c-0.1-0.373-0.032-0.791-0.042-1.188
					c0.863-1.323,0.283-2.805,0.454-4.205c0.367-3.008,1.557-3.701,4.077-2.14c5.21,3.226,9.43,7.441,12.774,12.618
					c2.994,4.635,5.734,9.366,7.926,14.444c2.164,5.015,3.498,10.237,4.395,15.578c0.463,2.756-1.419,4.187-4.103,3.319
					c-0.828-0.268-1.578-0.788-2.498-0.746c0,0-0.013-0.007-0.013-0.007C189.994,168.028,188.683,167.114,187.009,166.574z"/>
				<path style="fill:#77B83F;" d="M203.455,156.319c-0.035-1.037-0.603-1.871-1.048-2.752c-2.18-5.999-5.654-11.345-8.64-16.931
					c-2.117-3.961-4.193-7.986-7.199-11.402c-0.083-1.544-1.644-2.361-1.886-3.827c2.369-1.25,3.349,0.928,4.452,2.076
					c4.598,4.783,8.287,10.224,11.208,16.206c2.52,5.161,4.557,10.468,5.749,16.094c0.253,1.192-0.282,1.62-1.35,1.689
					c-0.144-0.013-0.288-0.032-0.43-0.057C204.298,156.837,203.989,156.49,203.455,156.319z"/>
				<path style="fill:#53A641;" d="M204.743,157.472c1.067-0.069,1.602-0.497,1.35-1.689c-1.193-5.626-3.229-10.933-5.749-16.094
					c-2.921-5.982-6.61-11.423-11.208-16.206c-1.104-1.148-2.084-3.326-4.452-2.076c-1.083-0.658-1.621-1.701-2.008-2.849
					c0.26-1.244,0.759-1.566,1.995-0.838c1.968,1.158,3.355,2.852,4.898,4.465c8.267,8.637,13.95,18.65,16.778,30.297
					c0.637,2.624,1.617,5.166,2.083,7.845c0.126,0.723,0.38,1.466-0.311,1.981c-0.813,0.606-1.253-0.375-1.885-0.571
					C206.144,160.172,205.231,158.896,204.743,157.472z"/>
				<path style="fill:#1F9541;" d="M203.455,156.319c0.534,0.171,0.843,0.518,0.857,1.095
					C203.674,157.326,203.378,156.968,203.455,156.319z"/>
				<path style="fill:#1F9541;" d="M187.009,166.574c1.673,0.54,2.985,1.453,3.403,3.291c-0.322,0.004-0.645,0.009-0.967,0.014
					C188.829,168.633,187.253,168.095,187.009,166.574z"/>
			</g>
			<rect x="162.555" y="103.173" style="clip-path:url(#SVGID_2_);fill:none;" width="58.932" height="74.87"/>
		</g>
	</g>
	<g>
		<path style="fill:none;stroke:#007136;stroke-width:5;" d="M230.294,186.98c0,17.111-13.542,30.984-30.239,30.984
			c-16.703,0-30.241-13.873-30.241-30.984c0-17.115,13.538-30.985,30.241-30.985C216.752,155.995,230.294,169.865,230.294,186.98z"
			/>
		<g>
			<path style="fill:#D71921;" d="M230.501,186.98c0,17.229-13.634,31.195-30.446,31.195c-16.816,0-30.447-13.967-30.447-31.195
				c0-17.232,13.631-31.196,30.447-31.196C216.867,155.784,230.501,169.749,230.501,186.98z"/>
			<path style="opacity:0.7;fill:#FFFFFF;" d="M190.099,182.427c-3.309,7.21-9.617,11.308-14.092,9.152
				c-4.473-2.155-5.419-9.748-2.109-16.957c3.305-7.212,9.615-11.31,14.091-9.153C192.465,167.624,193.408,175.216,190.099,182.427z
				"/>
			<path style="fill:#EC1C24;" d="M186.149,180.779l-1.645,5.251c-0.904,1.714-2.628,2.554-3.841,1.876l-3.078-3.279l-3.825-0.548
				c-1.217-0.675-1.473-2.61-0.566-4.322l3.568-4.628l1.559-5.074c0.904-1.712,2.625-2.552,3.844-1.873l2.46,2.619l4.439,1.206
				c1.219,0.674,1.472,2.612,0.569,4.324L186.149,180.779z"/>
			<path style="fill:#FFFFFF;" d="M185.82,180.805c-1.295,2.677-3.611,4.204-5.178,3.41c-1.57-0.796-1.794-3.609-0.5-6.289
				c1.289-2.678,3.609-4.206,5.18-3.413C186.887,175.31,187.113,178.123,185.82,180.805z"/>
		</g>
	</g>
	<g>
		<path style="fill:none;stroke:#007136;stroke-width:4;" d="M189.545,219.069c0,13.203,10.447,23.904,23.33,23.904
			c12.887,0,23.331-10.701,23.331-23.904c0-13.203-10.444-23.904-23.331-23.904C199.992,195.165,189.545,205.866,189.545,219.069z"
			/>
		<g>
			<path style="fill:#D71921;" d="M189.386,219.069c0,13.293,10.519,24.068,23.489,24.068c12.975,0,23.49-10.775,23.49-24.068
				c0-13.293-10.516-24.066-23.49-24.066C199.904,195.003,189.386,205.776,189.386,219.069z"/>
			<path style="opacity:0.7;fill:#FFFFFF;" d="M220.555,215.558c2.553,5.562,7.42,8.725,10.873,7.062
				c3.45-1.663,4.18-7.521,1.626-13.083c-2.549-5.564-7.417-8.725-10.87-7.061C218.73,204.138,218.003,209.994,220.555,215.558z"/>
			<path style="fill:#EC1C24;" d="M223.602,214.286l1.271,4.051c0.696,1.322,2.026,1.971,2.962,1.447l2.376-2.53l2.949-0.422
				c0.939-0.521,1.137-2.014,0.438-3.335l-2.752-3.57l-1.203-3.914c-0.697-1.321-2.025-1.969-2.965-1.445l-1.898,2.02l-3.424,0.931
				c-0.941,0.52-1.137,2.015-0.44,3.336L223.602,214.286z"/>
			<path style="fill:#FFFFFF;" d="M223.857,214.306c0.998,2.065,2.785,3.244,3.994,2.631c1.211-0.613,1.384-2.783,0.385-4.852
				c-0.994-2.065-2.784-3.244-3.996-2.633C223.033,210.067,222.859,212.236,223.857,214.306z"/>
		</g>
	</g>
	<g>
		<g>
			<g>
				<defs>
					<path id="SVGID_3_" d="M293.864,228.691c-0.106-0.547-0.401-1.113-0.631-1.513c-0.195-0.326-0.498-0.673-0.735-0.966
						c-0.641-0.79-1.437-1.454-2.361-1.991c-1.344-0.779-2.96-1.291-4.772-1.536c-6.855-0.928-14.025,1.687-19.839,5.123
						c-6.869,4.077-11.827,9.572-13.825,14.689c-0.666,1.704-1.003,3.365-0.974,4.918c0.02,1.069,0.213,2.087,0.594,3.032
						c0.141,0.348,0.307,0.687,0.498,1.015c0.222,0.364,0.218,0.39,0.213,0.399c-0.004,0.01-0.009,0.003,0.24,0.345
						c2.279,3.13,5.086,3.436,7.343,3.742c5.443,0.737,12.655-0.929,19.554-4.955l0.143-0.085
						c6.942-4.085,11.955-9.622,13.967-14.773c0.593-1.518,0.854-3.547,0.799-5.383
						C294.058,230.019,293.986,229.317,293.864,228.691"/>
				</defs>
				<clipPath id="SVGID_4_">
					<use xlink:href="#SVGID_3_"  style="overflow:visible;"/>
				</clipPath>
				<g style="clip-path:url(#SVGID_4_);">
					<path style="fill:#007B3A;" d="M293.735,228.614c0.707,1.738,0.703,3.375,0.248,5.075c-0.226,0.921-0.343,1.092-0.528,1.638
						c-1.366,4.035-3.751,7.384-6.791,10.249c-6.332,5.968-13.793,9.713-22.476,10.794c-2.832,0.353-5.696,0.159-8.405-0.81
						c-2.694-0.964-4.255-3.108-5.282-5.687c-0.603-1.493-0.534-3.065-0.134-4.495c1.392-4.408,3.691-8.256,7.097-11.408
						c7.194-6.656,15.338-11.149,25.446-11.227C287.623,222.704,291.449,224.219,293.735,228.614z M255.206,238.194
						c-0.332,0.058-0.514,0.249-0.527,0.592c-0.091,0.098-0.183,0.196-0.274,0.294c-1.305,1.297-2.035,2.905-2.343,4.68
						c-0.37,2.131,0.616,3.38,2.796,3.711c0.368,0.056,0.745,0.058,1.114,0.112c0.869,0.127,1.356,0.582,1.248,1.518
						c-0.184,0.1-0.368,0.201-0.552,0.301c-0.382,0.16-0.775,0.296-1.141,0.485c-0.317,0.163-0.749,0.317-0.628,0.789
						c0.114,0.444,0.538,0.439,0.914,0.442c0.328,0.002,0.651-0.019,0.9-0.277c0.461-0.108,0.921-0.215,1.382-0.323
						c1.904,1.639,4.305,1.873,6.542,1.63c2.278-0.247,4.588-1.014,6.681-1.988c4.058-1.888,8.083-3.922,11.439-6.972
						c1.513-1.376,3.09-2.748,4.098-4.569c1.197-2.162,1.826-4.597,3.127-6.721c0.307-0.502,0.694-1.108,0.236-1.694
						c-0.497-0.635-1.114-0.201-1.67-0.019c-1.651,0.542-1.659,0.451-1.623-1.229c0.029-1.356,0.532-2.918-0.523-4.039
						c-0.956-1.014-2.238-1.69-3.746-1.588c-2.65,0.179-5.331,0.319-7.869,1.105c-4.463,1.381-8.712,3.291-12.437,6.165
						c-0.668,0.515-1.737,0.885-1.691,2.062c0,0.176,0,0.352,0,0.528c-0.178,0.026-0.356,0.052-0.534,0.078
						c-0.506-0.472-0.848-0.087-1.167,0.247c-1.121,1.174-2.223,2.364-3.34,3.541C255.309,237.38,255.181,237.755,255.206,238.194z"
						/>
					<path style="fill:#1F9541;" d="M254.405,239.08c0.091-0.098,0.183-0.196,0.274-0.294c0.188-0.002,0.377-0.003,0.565-0.005
						c0.041,0.538-0.251,0.986-0.393,1.475c-0.461,1.586,0.409,2.662,2.014,2.343c3.111-0.619,6.144-1.491,9.042-2.845
						c2.934-1.372,5.655-3.058,8.316-4.892c2.972-2.048,5.365-4.592,7.162-7.698c0.87-1.503,0.443-2.187-1.324-2.349
						c-0.822-0.076-1.679,0.29-2.469-0.192c1.689-0.704,3.476-0.401,5.212-0.416c1.958-0.017,2.491,1.11,1.598,2.878
						c-1.197,2.369-2.561,4.63-4.128,6.775c-0.327,0.447-0.939,0.962-0.53,1.609c0.356,0.562,1.033,0.191,1.561,0.273
						c-1.947,1.819-4.267,3.105-6.548,4.413c-3.217,1.845-6.286,3.972-9.759,5.353c0.561-1.599,0.397-1.91-1.322-1.621
						c-2.788,0.469-5.549,1.037-8.395,1.15c-0.914,0.036-1.852,0.341-2.379-0.523c-0.445-0.729-0.078-1.579,0.294-2.349
						C253.675,241.171,254.358,240.247,254.405,239.08z"/>
					<path style="fill:#00883F;" d="M281.305,235.742c-0.528-0.082-1.205,0.289-1.561-0.273c-0.409-0.647,0.203-1.162,0.53-1.609
						c1.567-2.145,2.931-4.406,4.128-6.775c0.894-1.768,0.36-2.895-1.598-2.878c-1.736,0.015-3.523-0.288-5.212,0.416
						c-0.232,0.013-0.478-0.02-0.695,0.046c-3.962,1.193-7.888,2.51-11.43,4.688c-1.224,0.753-2.658,1.347-3.417,2.726
						c-0.186,0.186-0.372,0.373-0.559,0.559c-0.278,0.007-0.556,0.013-0.833,0.02c-0.046-1.176,1.023-1.546,1.691-2.061
						c3.726-2.875,7.974-4.784,12.437-6.165c2.538-0.785,5.219-0.925,7.869-1.105c1.507-0.102,2.79,0.574,3.746,1.588
						c1.055,1.12,0.552,2.683,0.523,4.039c-0.035,1.679-0.027,1.77,1.623,1.229c0.556-0.182,1.173-0.616,1.67,0.019
						c0.458,0.586,0.072,1.193-0.236,1.694c-1.301,2.124-1.93,4.558-3.127,6.721c-1.008,1.821-2.585,3.194-4.098,4.569
						c-3.356,3.051-7.381,5.085-11.439,6.972c-2.094,0.974-4.403,1.741-6.681,1.988c-2.237,0.242-4.638,0.009-6.542-1.631
						c2.287-0.456,4.564-0.966,6.862-1.355c4.624-0.783,8.862-2.477,12.78-5.059c3.805-2.508,6.576-6.036,9.518-9.4
						c0.766-0.876,1.41-1.857,2.105-2.794c0.208-0.281,0.294-0.605,0.1-0.918c-0.175-0.282-0.514-0.315-0.751-0.177
						c-1.263,0.735-2.872,0.994-3.564,2.531c-0.666,0.247-1.266,0.58-1.633,1.226C282.657,234.738,282.207,235.666,281.305,235.742z
						"/>
					<path style="fill:#77B83F;" d="M261.492,232.64c0.186-0.186,0.372-0.373,0.559-0.559c1.26,0.084,1.829-1.025,2.693-1.6
						c1.957-1.303,4.176-2.069,6.222-3.182c1.442-0.784,3.003-0.993,4.601-0.931c1.26,0.049,1.52,0.662,0.779,1.719
						c-0.4,0.571-0.793,1.168-1.293,1.644c-4.199,3.985-9.243,6.541-14.602,8.551c-0.345,0.129-0.728,0.155-1.089,0.246
						c-0.411,0.104-0.857,0.267-1.176-0.111c-0.273-0.322-0.011-0.7,0.039-1.062c0.129-0.936,0.926-1.645,0.853-2.636
						c0.2-0.591,1.101-0.677,1.047-1.452c0.178-0.026,0.356-0.052,0.534-0.077C261.416,233.732,261.393,233.094,261.492,232.64z"/>
					<path style="fill:#1F9541;" d="M285.144,233.346c0.693-1.537,2.301-1.796,3.564-2.531c0.238-0.138,0.576-0.105,0.751,0.177
						c0.194,0.313,0.108,0.637-0.1,0.918c-0.694,0.937-1.339,1.919-2.105,2.794c-2.941,3.364-5.712,6.892-9.518,9.4
						c-3.918,2.582-8.156,4.275-12.78,5.059c-2.298,0.389-4.575,0.899-6.862,1.355c-0.461,0.108-0.921,0.215-1.382,0.323
						c-0.343-0.47-0.102-0.957-0.045-1.439c0.184-0.1,0.368-0.201,0.552-0.301c1.182,0.005,1.827-1.352,3.063-1.21
						c-0.104,0.373-0.67,0.648-0.301,1.113c0.313,0.395,0.744,0.234,1.165,0.147c1.56-0.32,3.03-0.937,4.555-1.356
						c6.768-1.859,12.529-5.361,17.44-10.351c0.917-0.932,1.884-1.773,2.528-2.945C286.074,233.763,285.877,233.476,285.144,233.346
						z"/>
					<path style="fill:#00883F;" d="M260.283,247.89c-1.237-0.143-1.881,1.215-3.063,1.21c0.108-0.937-0.379-1.391-1.248-1.518
						c-0.369-0.054-0.745-0.056-1.114-0.112c-2.181-0.331-3.167-1.58-2.796-3.711c0.309-1.775,1.038-3.383,2.343-4.68
						c-0.047,1.168-0.73,2.092-1.21,3.087c-0.372,0.77-0.739,1.62-0.294,2.349c0.528,0.864,1.466,0.559,2.379,0.523
						c2.846-0.113,5.606-0.681,8.395-1.15c1.719-0.289,1.883,0.022,1.322,1.621c-0.508,0.276-0.986,0.623-1.592,0.661
						c-0.381-0.034-0.585,0.146-0.626,0.521c-0.012,0.084-0.021,0.168-0.026,0.253C261.928,247.254,261.197,247.811,260.283,247.89z
						"/>
					<path style="fill:#00883F;" d="M260.125,233.266c0.054,0.775-0.847,0.86-1.047,1.452c-0.821,0.505-1.39,1.257-1.963,2.005
						c-0.886,0.169-1.173,1.101-1.892,1.483l-0.017-0.013c-0.025-0.438,0.103-0.814,0.412-1.139c1.117-1.177,2.22-2.367,3.34-3.541
						C259.277,233.179,259.619,232.794,260.125,233.266z"/>
					<path style="fill:#00883F;" d="M256.668,249.401c-0.058,0.482-0.298,0.97,0.045,1.439c-0.249,0.258-0.572,0.279-0.9,0.277
						c-0.376-0.003-0.8,0.002-0.914-0.442c-0.121-0.471,0.311-0.625,0.628-0.789C255.893,249.697,256.286,249.56,256.668,249.401z"
						/>
					<path style="fill:#53A641;" d="M261.492,232.64c-0.099,0.454-0.076,1.092-0.833,0.549c0-0.177,0-0.353-0.001-0.529
						C260.936,232.653,261.214,232.647,261.492,232.64z"/>
					<path style="fill:#00883F;" d="M255.244,238.78c-0.188,0.002-0.377,0.003-0.565,0.005c0.012-0.343,0.195-0.533,0.527-0.592
						c0,0,0.017,0.013,0.017,0.013c0.008,0.189,0.017,0.377,0.025,0.566C255.248,238.773,255.244,238.78,255.244,238.78z"/>
					<path style="fill:#53A641;" d="M257.115,236.723c0.573-0.748,1.142-1.5,1.963-2.005c0.073,0.991-0.724,1.701-0.853,2.637
						c-0.05,0.363-0.312,0.74-0.039,1.062c0.32,0.378,0.765,0.215,1.176,0.111c0.361-0.091,0.744-0.117,1.089-0.246
						c5.359-2.01,10.404-4.566,14.602-8.551c0.501-0.475,0.893-1.073,1.293-1.644c0.741-1.057,0.481-1.67-0.779-1.719
						c-1.598-0.062-3.159,0.147-4.601,0.931c-2.046,1.113-4.265,1.879-6.222,3.182c-0.865,0.576-1.434,1.685-2.693,1.6
						c0.759-1.378,2.193-1.973,3.417-2.726c3.542-2.178,7.468-3.495,11.43-4.688c0.217-0.065,0.462-0.033,0.695-0.046
						c0.79,0.482,1.647,0.117,2.469,0.192c1.767,0.162,2.194,0.846,1.324,2.349c-1.797,3.106-4.191,5.65-7.162,7.698
						c-2.66,1.834-5.382,3.52-8.316,4.892c-2.897,1.355-5.931,2.227-9.042,2.845c-1.605,0.319-2.476-0.757-2.014-2.343
						c0.142-0.49,0.434-0.937,0.393-1.475c0,0,0.004-0.008,0.004-0.008C256.316,238.496,256.828,237.712,257.115,236.723z"/>
					<path style="fill:#77B83F;" d="M263.405,246.17c0.606-0.039,1.085-0.386,1.592-0.661c3.473-1.381,6.542-3.508,9.759-5.353
						c2.281-1.308,4.601-2.594,6.548-4.413c0.903-0.076,1.353-1.004,2.207-1.171c0.773,1.365-0.484,1.976-1.137,2.642
						c-2.719,2.775-5.839,5.029-9.29,6.844c-2.977,1.566-6.048,2.85-9.32,3.647c-0.693,0.169-0.953-0.137-1.012-0.76
						c0.005-0.085,0.014-0.169,0.026-0.253C263.116,246.672,263.314,246.486,263.405,246.17z"/>
					<path style="fill:#53A641;" d="M262.753,246.944c0.059,0.624,0.319,0.929,1.012,0.76c3.272-0.797,6.343-2.081,9.32-3.647
						c3.45-1.815,6.571-4.069,9.29-6.844c0.653-0.666,1.91-1.278,1.137-2.642c0.366-0.645,0.967-0.979,1.633-1.225
						c0.733,0.131,0.93,0.417,0.526,1.153c-0.644,1.172-1.611,2.014-2.528,2.945c-4.911,4.99-10.673,8.491-17.44,10.351
						c-1.525,0.419-2.995,1.037-4.555,1.356c-0.421,0.086-0.851,0.248-1.165-0.147c-0.369-0.465,0.198-0.74,0.301-1.113
						C261.197,247.811,261.928,247.254,262.753,246.944z"/>
					<path style="fill:#1F9541;" d="M263.405,246.17c-0.091,0.316-0.288,0.502-0.626,0.521
						C262.82,246.316,263.024,246.136,263.405,246.17z"/>
					<path style="fill:#1F9541;" d="M257.115,236.723c-0.287,0.989-0.799,1.773-1.867,2.049c-0.008-0.189-0.017-0.377-0.025-0.566
						C255.941,237.824,256.229,236.892,257.115,236.723z"/>
				</g>
				
					<rect x="250.48" y="221.948" transform="matrix(0.9996 -0.0299 0.0299 0.9996 -7.0244 8.2445)" style="clip-path:url(#SVGID_4_);fill:none;" width="43.843" height="34.51"/>
			</g>
		</g>
	</g>
</g>
<g>
	<g>
		<g>
			<defs>
				<path id="SVGID_5_" d="M119.099,175.68c-0.208-0.478-0.593-0.934-0.885-1.253c-0.245-0.257-0.592-0.512-0.868-0.731
					c-0.746-0.591-1.608-1.034-2.562-1.335c-1.386-0.437-2.965-0.574-4.669-0.427c-6.447,0.552-12.457,4.403-17.063,8.727
					c-5.437,5.124-8.841,11.152-9.62,16.231c-0.26,1.691-0.229,3.277,0.115,4.688c0.236,0.972,0.621,1.861,1.162,2.646
					c0.199,0.289,0.42,0.565,0.662,0.825c0.277,0.287,0.278,0.311,0.276,0.32c-0.002,0.01-0.008,0.005,0.29,0.266
					c2.719,2.392,5.344,2.098,7.467,1.916c5.119-0.438,11.361-3.432,16.836-8.515l0.114-0.107
					c5.503-5.146,8.947-11.224,9.732-16.336c0.231-1.507,0.055-3.412-0.369-5.077C119.547,176.852,119.338,176.227,119.099,175.68"
					/>
			</defs>
			<clipPath id="SVGID_6_">
				<use xlink:href="#SVGID_5_"  style="overflow:visible;"/>
			</clipPath>
			<g style="clip-path:url(#SVGID_6_);">
				<path style="fill:#007B3A;" d="M118.965,175.636c1,1.442,1.331,2.937,1.263,4.581c-0.018,0.887-0.09,1.067-0.147,1.603
					c-0.423,3.962-1.916,7.505-4.106,10.742c-4.561,6.741-10.606,11.682-18.311,14.442c-2.513,0.9-5.167,1.308-7.837,0.976
					c-2.656-0.33-4.519-1.968-5.983-4.113c-0.855-1.24-1.113-2.689-1.04-4.076c0.371-4.308,1.683-8.29,4.149-11.862
					c5.207-7.544,11.724-13.308,20.934-15.444C112.18,171.489,115.981,172.091,118.965,175.636z M85.753,192.247
					c-0.291,0.121-0.419,0.332-0.36,0.648c-0.063,0.108-0.127,0.216-0.19,0.324c-0.927,1.451-1.264,3.067-1.183,4.75
					c0.097,2.021,1.252,2.959,3.31,2.816c0.348-0.024,0.692-0.099,1.039-0.125c0.819-0.061,1.356,0.254,1.449,1.131
					c-0.147,0.129-0.295,0.258-0.442,0.387c-0.316,0.224-0.647,0.429-0.943,0.676c-0.256,0.214-0.619,0.443-0.412,0.848
					c0.195,0.382,0.581,0.291,0.925,0.217c0.3-0.065,0.59-0.15,0.765-0.436c0.398-0.192,0.797-0.384,1.195-0.577
					c2.072,1.107,4.311,0.83,6.304,0.152c2.029-0.691,3.98-1.862,5.693-3.179c3.319-2.552,6.577-5.23,9.018-8.7
					c1.1-1.565,2.259-3.139,2.808-5.007c0.651-2.218,0.729-4.569,1.482-6.773c0.178-0.521,0.407-1.153-0.131-1.595
					c-0.583-0.478-1.058,0.044-1.528,0.324c-1.396,0.831-1.422,0.75-1.733-0.79c-0.251-1.244-0.11-2.773-1.302-3.58
					c-1.079-0.731-2.388-1.086-3.743-0.685c-2.382,0.704-4.801,1.38-6.957,2.615c-3.792,2.172-7.28,4.782-10.094,8.167
					c-0.504,0.607-1.405,1.163-1.123,2.227c0.036,0.161,0.072,0.321,0.108,0.482c-0.157,0.06-0.314,0.12-0.471,0.18
					c-0.558-0.328-0.792,0.094-1.015,0.464c-0.783,1.3-1.547,2.612-2.326,3.914C85.681,191.483,85.64,191.852,85.753,192.247z"/>
				<path style="fill:#1F9541;" d="M85.203,193.219c0.063-0.108,0.127-0.216,0.19-0.324c0.171-0.04,0.343-0.08,0.514-0.12
					c0.147,0.483-0.027,0.951-0.058,1.427c-0.097,1.542,0.917,2.347,2.317,1.728c2.713-1.2,5.304-2.615,7.672-4.443
					c2.398-1.851,4.538-3.946,6.592-6.163c2.294-2.476,3.959-5.287,4.966-8.489c0.487-1.549-0.042-2.087-1.688-1.874
					c-0.766,0.099-1.474,0.607-2.293,0.329c1.398-0.988,3.091-1.076,4.672-1.444c1.784-0.415,2.501,0.505,2.046,2.301
					c-0.609,2.407-1.392,4.749-2.385,7.027c-0.207,0.475-0.661,1.07-0.155,1.577c0.44,0.44,0.982-0.036,1.48-0.07
					c-1.406,2.058-3.261,3.705-5.076,5.365c-2.56,2.341-4.927,4.909-7.815,6.879c0.185-1.574-0.028-1.824-1.538-1.209
					c-2.449,0.998-4.853,2.079-7.428,2.764c-0.827,0.22-1.62,0.69-2.278,0.009c-0.555-0.574-0.394-1.425-0.211-2.204
					C84.964,195.277,85.398,194.294,85.203,193.219z"/>
				<path style="fill:#00883F;" d="M109.075,184.68c-0.499,0.033-1.041,0.51-1.48,0.07c-0.506-0.507-0.052-1.102,0.155-1.577
					c0.993-2.278,1.776-4.62,2.385-7.027c0.455-1.796-0.262-2.716-2.046-2.301c-1.581,0.368-3.274,0.456-4.672,1.444
					c-0.209,0.059-0.441,0.08-0.625,0.184c-3.373,1.898-6.688,3.901-9.476,6.612c-0.964,0.937-2.151,1.772-2.563,3.186
					c-0.132,0.208-0.264,0.416-0.396,0.624c-0.252,0.063-0.505,0.125-0.757,0.188c-0.282-1.064,0.618-1.62,1.123-2.227
					c2.814-3.384,6.302-5.995,10.094-8.167c2.156-1.235,4.575-1.91,6.957-2.615c1.355-0.401,2.664-0.046,3.743,0.685
					c1.192,0.807,1.052,2.336,1.302,3.58c0.311,1.54,0.337,1.621,1.733,0.79c0.47-0.28,0.945-0.802,1.528-0.324
					c0.538,0.441,0.309,1.074,0.131,1.595c-0.754,2.204-0.831,4.555-1.482,6.773c-0.549,1.868-1.708,3.443-2.808,5.007
					c-2.44,3.47-5.699,6.148-9.018,8.7c-1.712,1.316-3.664,2.488-5.693,3.179c-1.993,0.678-4.232,0.955-6.304-0.153
					c1.994-0.883,3.969-1.813,5.987-2.638c4.061-1.659,7.583-4.07,10.632-7.227c2.961-3.066,4.77-6.852,6.768-10.524
					c0.52-0.956,0.908-1.983,1.351-2.98c0.133-0.299,0.145-0.612-0.096-0.858c-0.217-0.222-0.533-0.183-0.722-0.008
					c-1.003,0.929-2.418,1.493-2.737,3.038c-0.557,0.361-1.038,0.788-1.24,1.452C110.105,183.488,109.883,184.427,109.075,184.68z"
					/>
				<path style="fill:#77B83F;" d="M90.356,185.894c0.132-0.208,0.264-0.416,0.396-0.624c1.167-0.18,1.46-1.309,2.132-2.011
					c1.521-1.589,3.39-2.741,5.03-4.175c1.156-1.01,2.538-1.52,4.009-1.789c1.16-0.212,1.523,0.293,1.062,1.41
					c-0.249,0.603-0.485,1.228-0.845,1.764c-3.019,4.495-7.102,7.857-11.582,10.787c-0.289,0.189-0.633,0.29-0.944,0.447
					c-0.354,0.179-0.727,0.419-1.096,0.139c-0.315-0.239-0.153-0.637-0.181-0.978c-0.073-0.88,0.509-1.691,0.24-2.581
					c0.062-0.581,0.867-0.843,0.659-1.539c0.157-0.06,0.314-0.12,0.472-0.18C90.51,186.906,90.359,186.329,90.356,185.894z"/>
				<path style="fill:#1F9541;" d="M112.09,181.709c0.319-1.545,1.734-2.109,2.737-3.038c0.189-0.175,0.504-0.213,0.722,0.008
					c0.241,0.246,0.229,0.559,0.096,0.858c-0.442,0.997-0.831,2.025-1.351,2.98c-1.998,3.671-3.807,7.457-6.768,10.524
					c-3.049,3.157-6.571,5.568-10.632,7.227c-2.018,0.825-3.993,1.755-5.987,2.638c-0.398,0.193-0.797,0.385-1.195,0.577
					c-0.409-0.359-0.289-0.853-0.335-1.305c0.147-0.129,0.295-0.258,0.443-0.387c1.08-0.237,1.391-1.607,2.549-1.73
					c-0.019,0.362-0.48,0.728-0.048,1.078c0.367,0.297,0.727,0.062,1.093-0.103c1.358-0.61,2.575-1.474,3.881-2.168
					c5.798-3.079,10.342-7.451,13.806-13.009c0.647-1.037,1.358-2.003,1.706-3.204C113.024,181.9,112.785,181.679,112.09,181.709z"
					/>
				<path style="fill:#00883F;" d="M92.367,200.061c-1.158,0.122-1.469,1.493-2.549,1.73c-0.093-0.877-0.63-1.192-1.449-1.131
					c-0.348,0.026-0.692,0.101-1.039,0.125c-2.058,0.143-3.213-0.795-3.31-2.816c-0.081-1.683,0.256-3.3,1.183-4.75
					c0.196,1.075-0.239,2.058-0.474,3.065c-0.182,0.779-0.344,1.63,0.211,2.204c0.658,0.681,1.452,0.211,2.278-0.009
					c2.575-0.684,4.978-1.766,7.428-2.764c1.51-0.615,1.723-0.365,1.538,1.209c-0.407,0.355-0.773,0.77-1.318,0.929
					c-0.355,0.047-0.504,0.252-0.465,0.603c0.006,0.079,0.015,0.158,0.028,0.236C93.739,199.145,93.185,199.802,92.367,200.061z"/>
				<path style="fill:#00883F;" d="M89.237,186.745c0.208,0.696-0.598,0.958-0.659,1.539c-0.647,0.629-1.012,1.432-1.382,2.231
					c-0.774,0.335-0.846,1.245-1.424,1.74l-0.018-0.008c-0.113-0.395-0.072-0.764,0.143-1.124c0.779-1.302,1.543-2.614,2.326-3.914
					C88.445,186.839,88.679,186.417,89.237,186.745z"/>
				<path style="fill:#00883F;" d="M89.376,202.178c0.046,0.452-0.074,0.946,0.335,1.305c-0.175,0.286-0.465,0.372-0.765,0.436
					c-0.343,0.074-0.729,0.165-0.925-0.217c-0.207-0.406,0.156-0.634,0.412-0.848C88.729,202.607,89.06,202.401,89.376,202.178z"/>
				<path style="fill:#53A641;" d="M90.356,185.894c0.003,0.435,0.154,1.012-0.648,0.671c-0.036-0.161-0.072-0.322-0.109-0.483
					C89.852,186.02,90.104,185.957,90.356,185.894z"/>
				<path style="fill:#00883F;" d="M85.908,192.775c-0.172,0.04-0.343,0.08-0.515,0.12c-0.059-0.315,0.069-0.527,0.36-0.648
					c0,0,0.018,0.008,0.018,0.008c0.046,0.17,0.092,0.341,0.138,0.511C85.91,192.767,85.908,192.775,85.908,192.775z"/>
				<path style="fill:#53A641;" d="M87.195,190.515c0.37-0.8,0.736-1.602,1.382-2.231c0.269,0.89-0.313,1.7-0.24,2.581
					c0.028,0.341-0.133,0.739,0.181,0.978c0.369,0.28,0.742,0.04,1.096-0.139c0.311-0.157,0.655-0.258,0.944-0.447
					c4.481-2.929,8.564-6.292,11.582-10.787c0.36-0.536,0.596-1.162,0.845-1.764c0.46-1.116,0.098-1.622-1.062-1.41
					c-1.471,0.269-2.853,0.779-4.009,1.789c-1.64,1.434-3.509,2.586-5.03,4.175c-0.672,0.702-0.965,1.831-2.132,2.011
					c0.412-1.413,1.599-2.248,2.563-3.186c2.788-2.711,6.103-4.715,9.476-6.612c0.184-0.104,0.415-0.124,0.625-0.184
					c0.819,0.279,1.527-0.23,2.293-0.329c1.646-0.213,2.175,0.325,1.688,1.874c-1.006,3.202-2.672,6.012-4.966,8.489
					c-2.054,2.217-4.194,4.312-6.592,6.163c-2.368,1.828-4.959,3.243-7.672,4.443c-1.4,0.619-2.414-0.186-2.317-1.728
					c0.03-0.476,0.204-0.944,0.058-1.427c0,0,0.002-0.008,0.002-0.008C86.828,192.296,87.135,191.476,87.195,190.515z"/>
				<path style="fill:#77B83F;" d="M94.865,197.853c0.545-0.159,0.911-0.573,1.318-0.929c2.889-1.97,5.255-4.538,7.815-6.879
					c1.815-1.66,3.67-3.307,5.076-5.365c0.808-0.253,1.03-1.192,1.775-1.519c0.984,1.088-0.039,1.903-0.498,2.644
					c-1.915,3.088-4.303,5.783-7.082,8.144c-2.397,2.037-4.938,3.836-7.762,5.232c-0.598,0.296-0.898,0.07-1.079-0.488
					c-0.013-0.078-0.022-0.157-0.028-0.236C94.705,198.371,94.847,198.16,94.865,197.853z"/>
				<path style="fill:#53A641;" d="M94.428,198.693c0.181,0.557,0.481,0.783,1.079,0.488c2.824-1.395,5.365-3.195,7.762-5.232
					c2.779-2.361,5.167-5.055,7.082-8.144c0.46-0.741,1.483-1.557,0.498-2.644c0.203-0.664,0.683-1.091,1.24-1.452
					c0.695-0.03,0.934,0.191,0.715,0.945c-0.348,1.201-1.059,2.167-1.706,3.204c-3.464,5.558-8.008,9.93-13.806,13.009
					c-1.306,0.694-2.522,1.558-3.881,2.168c-0.367,0.165-0.727,0.4-1.093,0.103c-0.432-0.35,0.029-0.716,0.048-1.078
					C93.185,199.802,93.739,199.145,94.428,198.693z"/>
				<path style="fill:#1F9541;" d="M94.865,197.853c-0.018,0.307-0.161,0.517-0.465,0.603
					C94.361,198.106,94.511,197.9,94.865,197.853z"/>
				<path style="fill:#1F9541;" d="M87.195,190.515c-0.06,0.961-0.367,1.781-1.286,2.252c-0.046-0.17-0.092-0.341-0.138-0.511
					C86.349,191.759,86.421,190.85,87.195,190.515z"/>
			</g>
			
				<rect x="81.15" y="173.518" transform="matrix(0.9689 -0.2474 0.2474 0.9689 -43.753 31.0377)" style="clip-path:url(#SVGID_6_);fill:none;" width="41.008" height="32.278"/>
		</g>
	</g>
	<g>
		<g>
			<defs>
				<path id="SVGID_7_" d="M-12.162,212.573c-0.705,0.638-1.272,1.57-1.654,2.259c-0.303,0.573-0.543,1.323-0.761,1.927
					c-0.588,1.635-0.855,3.384-0.822,5.21c0.049,2.653,0.73,5.466,1.974,8.33c4.704,10.837,14.862,19,25.022,24.458
					c12.029,6.432,24.441,8.819,33.684,7.215c3.078-0.533,5.804-1.509,8.046-2.924c1.545-0.974,2.861-2.157,3.904-3.548
					c0.385-0.513,0.733-1.056,1.043-1.625c0.336-0.646,0.377-0.663,0.394-0.664c0.018-0.002,0.013,0.011,0.292-0.656
					c2.559-6.096,0.525-10.468-1.025-14.037c-3.734-8.605-12.545-17.668-24.524-24.19l-0.25-0.135
					c-12.105-6.532-24.627-8.961-33.931-7.348c-2.742,0.476-5.938,1.888-8.572,3.591C-10.394,211.116-11.355,211.841-12.162,212.573
					"/>
			</defs>
			<clipPath id="SVGID_8_">
				<use xlink:href="#SVGID_7_"  style="overflow:visible;"/>
			</clipPath>
			<g style="clip-path:url(#SVGID_8_);">
				<path style="fill:#007B3A;" d="M-12.161,212.831c1.915-2.57,4.31-4.012,7.195-4.848c1.546-0.484,1.899-0.464,2.859-0.676
					c7.104-1.571,14.104-1.047,20.978,0.861c14.317,3.975,26.384,11.566,35.639,23.297c3.019,3.827,5.267,8.182,6.246,12.996
					c0.973,4.788-0.78,8.965-3.64,12.745c-1.648,2.2-4.006,3.49-6.449,4.17c-7.672,1.862-15.326,1.906-22.942-0.285
					c-16.084-4.627-29.848-12.555-38.898-27.253C-15.393,226.984-16.562,220.056-12.161,212.831z M35.894,260.656
					c0.378,0.433,0.819,0.531,1.33,0.247c0.224,0.047,0.448,0.094,0.672,0.141c3.049,0.761,6.043,0.405,8.909-0.714
					c3.441-1.342,4.394-3.887,2.95-7.366c-0.244-0.588-0.574-1.139-0.821-1.726c-0.582-1.382-0.349-2.495,1.115-3.165
					c0.309,0.18,0.619,0.36,0.928,0.54c0.57,0.417,1.118,0.87,1.718,1.238c0.519,0.319,1.126,0.814,1.708,0.22
					c0.548-0.56,0.166-1.175-0.162-1.726c-0.286-0.481-0.603-0.934-1.2-1.071c-0.564-0.578-1.128-1.156-1.693-1.733
					c0.712-4.231-1.069-7.945-3.401-10.999c-2.375-3.111-5.537-5.807-8.811-8.005c-6.346-4.261-12.875-8.343-20.299-10.55
					c-3.347-0.995-6.747-2.086-10.299-1.949c-4.218,0.162-8.331,1.395-12.584,1.371c-1.005-0.005-2.233-0.034-2.684,1.154
					c-0.489,1.288,0.691,1.806,1.449,2.457c2.25,1.933,2.125,2.025-0.36,3.458c-2.007,1.157-4.734,1.803-5.438,4.335
					c-0.637,2.293-0.491,4.764,0.99,6.876c2.604,3.713,5.179,7.507,8.57,10.521c5.963,5.3,12.508,9.82,20.002,12.722
					c1.344,0.52,2.829,1.756,4.508,0.648c0.257-0.156,0.514-0.311,0.771-0.467c0.195,0.237,0.39,0.474,0.586,0.711
					c-0.243,1.156,0.622,1.316,1.393,1.486c2.705,0.6,5.419,1.159,8.126,1.75C34.614,261.225,35.276,261.081,35.894,260.656z"/>
				<path style="fill:#1F9541;" d="M37.897,261.043c-0.224-0.047-0.448-0.094-0.672-0.141c-0.169-0.273-0.338-0.547-0.507-0.821
					c0.75-0.535,1.662-0.505,2.503-0.73c2.725-0.728,3.528-2.952,1.643-5.014c-3.654-3.999-7.609-7.659-12.15-10.695
					c-4.597-3.074-9.467-5.56-14.498-7.826c-5.62-2.531-11.451-3.78-17.578-3.66c-2.964,0.058-3.587,1.285-2.262,4.011
					c0.617,1.268,1.908,2.198,1.902,3.777c-2.522-1.845-3.659-4.724-5.215-7.247c-1.756-2.846-0.58-4.621,2.793-4.879
					c4.52-0.345,9.028-0.351,13.548,0.043c0.943,0.082,2.236,0.521,2.82-0.649c0.507-1.017-0.634-1.678-0.981-2.522
					c4.379,1.237,8.308,3.489,12.237,5.666c5.54,3.07,11.361,5.673,16.449,9.527c-2.832,0.594-3.142,1.108-1.199,3.365
					c3.151,3.659,6.419,7.191,9.101,11.249c0.861,1.303,2.136,2.404,1.34,3.938c-0.672,1.294-2.237,1.51-3.692,1.647
					C41.598,260.26,39.644,260.08,37.897,261.043z"/>
				<path style="fill:#00883F;" d="M9.242,224.691c0.347,0.844,1.488,1.505,0.981,2.522c-0.583,1.17-1.877,0.731-2.82,0.649
					c-4.52-0.394-9.028-0.388-13.548-0.043c-3.373,0.257-4.549,2.033-2.793,4.879c1.556,2.522,2.693,5.402,5.215,7.247
					c0.224,0.328,0.394,0.716,0.681,0.975c5.245,4.735,10.64,9.307,16.953,12.556c2.182,1.123,4.318,2.693,7.003,2.584
					c0.437,0.107,0.874,0.215,1.311,0.322c0.255,0.4,0.51,0.8,0.766,1.2c-1.678,1.107-3.163-0.129-4.507-0.649
					c-7.493-2.902-14.038-7.421-20.002-12.722c-3.39-3.014-5.966-6.807-8.57-10.521c-1.481-2.112-1.628-4.583-0.99-6.876
					c0.704-2.532,3.432-3.178,5.438-4.335c2.485-1.433,2.611-1.525,0.36-3.458c-0.758-0.651-1.937-1.169-1.449-2.457
					c0.451-1.188,1.679-1.159,2.684-1.154c4.253,0.023,8.366-1.209,12.584-1.371c3.552-0.137,6.951,0.954,10.299,1.949
					c7.424,2.207,13.954,6.289,20.299,10.55c3.274,2.198,6.436,4.894,8.811,8.005c2.332,3.054,4.113,6.769,3.4,10.999
					c-2.687-2.939-5.446-5.816-8.046-8.829c-5.233-6.064-11.452-10.759-18.689-14.201c-7.028-3.343-14.633-4.273-22.148-5.596
					c-1.956-0.344-3.96-0.419-5.943-0.605c-0.595-0.056-1.144,0.105-1.43,0.665c-0.257,0.505-0.007,1.029,0.405,1.254
					c2.191,1.196,3.99,3.317,6.849,2.97c0.949,0.754,1.967,1.338,3.234,1.302C6.58,223.602,8.334,223.439,9.242,224.691z"/>
				<path style="fill:#77B83F;" d="M22.224,256.381c-0.437-0.107-0.874-0.215-1.311-0.322c-0.99-1.915-3.114-1.766-4.719-2.52
					c-3.634-1.708-6.715-4.273-10.149-6.279c-2.42-1.414-4.106-3.51-5.427-5.899c-1.042-1.884-0.377-2.806,1.823-2.658
					c1.188,0.08,2.408,0.125,3.545,0.437c9.534,2.612,17.727,7.724,25.401,13.776c0.494,0.39,0.87,0.927,1.322,1.373
					c0.515,0.508,1.148,1.015,0.878,1.816c-0.23,0.684-1.013,0.635-1.587,0.882c-1.481,0.639-3.222,0.102-4.606,1.084
					c-1.041,0.231-1.963-1.01-3.047-0.246c-0.195-0.237-0.39-0.474-0.585-0.712C23.886,255.527,22.975,256.124,22.224,256.381z"/>
				<path style="fill:#1F9541;" d="M2.346,221.2c-2.859,0.347-4.659-1.775-6.849-2.971c-0.412-0.225-0.663-0.749-0.405-1.254
					c0.285-0.56,0.835-0.721,1.43-0.665c1.983,0.186,3.987,0.261,5.943,0.605c7.515,1.323,15.12,2.253,22.148,5.596
					c7.236,3.442,13.456,8.137,18.689,14.201c2.6,3.013,5.358,5.89,8.046,8.829c0.565,0.578,1.129,1.156,1.693,1.733
					c-0.383,0.917-1.308,0.996-2.063,1.338c-0.309-0.18-0.619-0.36-0.928-0.541c-1.038-1.732-3.59-1.473-4.475-3.406
					c0.637-0.178,1.539,0.407,1.893-0.544c0.301-0.808-0.316-1.293-0.814-1.832c-1.846-1.996-4.048-3.599-6.009-5.456
					c-8.699-8.244-18.908-13.568-30.54-16.332c-2.171-0.516-4.256-1.186-6.537-1.09C2.134,219.473,1.89,220.013,2.346,221.2z"/>
				<path style="fill:#00883F;" d="M45.574,244.667c0.885,1.933,3.437,1.674,4.475,3.406c-1.464,0.67-1.697,1.784-1.115,3.166
					c0.247,0.587,0.577,1.138,0.821,1.726c1.445,3.479,0.491,6.023-2.95,7.366c-2.866,1.118-5.86,1.474-8.909,0.713
					c1.747-0.964,3.701-0.783,5.58-0.961c1.455-0.137,3.02-0.353,3.692-1.647c0.796-1.534-0.479-2.635-1.34-3.938
					c-2.681-4.058-5.95-7.589-9.101-11.249c-1.943-2.256-1.633-2.77,1.199-3.365c0.852,0.498,1.781,0.89,2.374,1.742
					c0.288,0.586,0.73,0.726,1.315,0.454c0.133-0.056,0.264-0.118,0.392-0.186C43.191,242.826,44.651,243.401,45.574,244.667z"/>
				<path style="fill:#00883F;" d="M24.347,257.825c1.084-0.764,2.006,0.477,3.047,0.247c1.464,0.754,3.066,0.919,4.665,1.095
					c1.03,1.145,2.646,0.741,3.839,1.452l-0.004,0.037c-0.618,0.424-1.28,0.569-2.028,0.405c-2.707-0.591-5.421-1.15-8.126-1.75
					C24.969,259.141,24.104,258.981,24.347,257.825z"/>
				<path style="fill:#00883F;" d="M50.977,248.613c0.755-0.342,1.681-0.421,2.063-1.338c0.597,0.136,0.914,0.589,1.2,1.07
					c0.328,0.551,0.71,1.166,0.162,1.726c-0.581,0.594-1.188,0.099-1.708-0.22C52.095,249.483,51.547,249.03,50.977,248.613z"/>
				<path style="fill:#53A641;" d="M22.224,256.381c0.751-0.257,1.662-0.854,1.538,0.731c-0.258,0.157-0.515,0.312-0.772,0.469
					C22.734,257.182,22.479,256.782,22.224,256.381z"/>
				<path style="fill:#00883F;" d="M36.718,260.082c0.169,0.274,0.338,0.547,0.507,0.821c-0.511,0.285-0.952,0.186-1.33-0.247
					c0,0,0.004-0.036,0.004-0.036c0.268-0.179,0.536-0.358,0.805-0.537C36.703,260.083,36.718,260.082,36.718,260.082z"/>
				<path style="fill:#53A641;" d="M32.059,259.167c-1.599-0.176-3.201-0.342-4.665-1.095c1.384-0.983,3.125-0.446,4.606-1.085
					c0.574-0.247,1.357-0.199,1.587-0.882c0.27-0.801-0.363-1.308-0.878-1.816c-0.452-0.447-0.828-0.984-1.322-1.373
					c-7.674-6.052-15.867-11.164-25.401-13.776c-1.137-0.311-2.357-0.357-3.545-0.437c-2.2-0.148-2.865,0.774-1.823,2.658
					c1.322,2.389,3.007,4.486,5.427,5.899c3.435,2.006,6.516,4.57,10.149,6.279c1.605,0.755,3.729,0.606,4.719,2.52
					c-2.685,0.109-4.821-1.46-7.003-2.583c-6.313-3.249-11.708-7.821-16.953-12.556c-0.287-0.259-0.457-0.647-0.681-0.975
					c0.006-1.58-1.285-2.509-1.902-3.778c-1.325-2.726-0.702-3.953,2.262-4.011c6.127-0.12,11.959,1.129,17.578,3.66
					c5.031,2.266,9.901,4.752,14.498,7.826c4.54,3.036,8.496,6.697,12.15,10.695c1.885,2.063,1.082,4.286-1.643,5.014
					c-0.841,0.225-1.753,0.195-2.503,0.73c0,0-0.015,0.001-0.015,0.001C35.355,258.767,33.757,258.712,32.059,259.167z"/>
				<path style="fill:#77B83F;" d="M40.301,241.626c-0.592-0.852-1.522-1.244-2.374-1.742c-5.088-3.854-10.908-6.457-16.449-9.527
					c-3.928-2.177-7.857-4.429-12.237-5.666c-0.908-1.252-2.662-1.09-3.661-2.19c1.31-2.336,3.316-1.039,4.866-0.674
					c6.458,1.519,12.51,4.086,18.211,7.523c4.919,2.965,9.51,6.317,13.567,10.393c0.859,0.864,0.642,1.513-0.217,2.151
					c-0.128,0.067-0.259,0.129-0.392,0.186C41.29,241.603,40.842,241.479,40.301,241.626z"/>
				<path style="fill:#53A641;" d="M42.008,241.895c0.859-0.637,1.076-1.287,0.217-2.151c-4.056-4.077-8.648-7.428-13.567-10.393
					c-5.701-3.437-11.753-6.004-18.211-7.523c-1.55-0.365-3.556-1.661-4.866,0.674c-1.267,0.035-2.285-0.548-3.234-1.302
					c-0.457-1.186-0.213-1.727,1.22-1.787c2.282-0.096,4.366,0.574,6.537,1.09c11.632,2.764,21.841,8.087,30.54,16.332
					c1.96,1.858,4.162,3.46,6.009,5.456c0.498,0.539,1.115,1.025,0.814,1.832c-0.354,0.951-1.256,0.366-1.893,0.544
					C44.651,243.401,43.191,242.826,42.008,241.895z"/>
				<path style="fill:#1F9541;" d="M40.301,241.626c0.541-0.147,0.989-0.023,1.315,0.454
					C41.031,242.352,40.589,242.212,40.301,241.626z"/>
				<path style="fill:#1F9541;" d="M32.059,259.167c1.698-0.455,3.296-0.4,4.644,0.916c-0.268,0.179-0.536,0.358-0.805,0.537
					C34.705,259.908,33.089,260.312,32.059,259.167z"/>
			</g>
			
				<rect x="-7.298" y="197.206" transform="matrix(0.8397 -0.543 0.543 0.8397 -123.8514 49.6382)" style="clip-path:url(#SVGID_8_);fill:none;" width="58.932" height="74.87"/>
		</g>
	</g>
	<g>
		<path style="fill:none;stroke:#007136;stroke-width:5;" d="M90.078,213.18c0,17.111-13.542,30.984-30.239,30.984
			c-16.703,0-30.241-13.873-30.241-30.984c0-17.115,13.538-30.985,30.241-30.985C76.536,182.194,90.078,196.064,90.078,213.18z"/>
		<g>
			<path style="fill:#D71921;" d="M90.285,213.18c0,17.229-13.634,31.195-30.446,31.195c-16.816,0-30.447-13.967-30.447-31.195
				c0-17.232,13.631-31.197,30.447-31.197C76.651,181.982,90.285,195.947,90.285,213.18z"/>
			<path style="opacity:0.7;fill:#FFFFFF;" d="M49.884,208.627c-3.309,7.209-9.617,11.307-14.092,9.152
				c-4.473-2.156-5.419-9.748-2.109-16.957c3.305-7.213,9.615-11.311,14.091-9.153C52.249,193.823,53.192,201.415,49.884,208.627z"
				/>
			<path style="fill:#EC1C24;" d="M45.933,206.978l-1.646,5.25c-0.904,1.715-2.628,2.555-3.841,1.877l-3.078-3.279l-3.825-0.549
				c-1.217-0.674-1.473-2.609-0.566-4.322l3.568-4.627l1.559-5.074c0.904-1.712,2.625-2.552,3.844-1.873l2.46,2.619l4.439,1.205
				c1.219,0.674,1.472,2.611,0.569,4.324L45.933,206.978z"/>
			<path style="fill:#FFFFFF;" d="M45.604,207.004c-1.295,2.678-3.611,4.205-5.178,3.41c-1.57-0.795-1.794-3.609-0.5-6.289
				c1.289-2.678,3.609-4.205,5.18-3.412C46.671,201.51,46.897,204.322,45.604,207.004z"/>
		</g>
	</g>
	<g>
		<path style="fill:none;stroke:#007136;stroke-width:4;" d="M86.075,264.357c10.802-7.594,13.549-22.295,6.141-32.834
			c-7.411-10.543-22.172-12.934-32.974-5.34c-10.802,7.592-13.55,22.291-6.14,32.834C60.512,269.556,75.274,271.949,86.075,264.357z
			"/>
		<g>
			<path style="fill:#D71921;" d="M86.167,264.487c10.875-7.645,13.642-22.446,6.183-33.058
				c-7.462-10.615-22.324-13.021-33.199-5.377c-10.875,7.645-13.642,22.443-6.18,33.058
				C60.43,269.722,75.292,272.131,86.167,264.487z"/>
			<path style="opacity:0.7;fill:#FFFFFF;" d="M65.37,241.008c3.082-5.287,2.87-11.088-0.476-12.957
				c-3.345-1.865-8.557,0.906-11.639,6.193c-3.087,5.285-2.873,11.086,0.474,12.954C57.076,249.066,62.286,246.295,65.37,241.008z"
				/>
			<path style="fill:#EC1C24;" d="M62.577,239.245l2.583-3.369c0.682-1.33,0.447-2.791-0.52-3.255l-3.436-0.489l-2.041-2.17
				c-0.966-0.47-2.301,0.228-2.979,1.56l-1.339,4.305l-2.51,3.235c-0.68,1.33-0.446,2.789,0.522,3.257l2.744,0.392l2.73,2.266
				c0.967,0.472,2.302-0.229,2.982-1.558L62.577,239.245z"/>
			<path style="fill:#FFFFFF;" d="M62.446,239.025c1.116-2.004,1.053-4.145-0.144-4.781c-1.198-0.637-3.073,0.469-4.191,2.476
				c-1.118,2.001-1.053,4.144,0.145,4.784C59.453,242.137,61.327,241.031,62.446,239.025z"/>
		</g>
	</g>
	<g>
		<path style="fill:none;stroke:#007136;stroke-width:4;" d="M119.075,243.514c10.802-7.592,13.549-22.293,6.141-32.832
			c-7.411-10.543-22.172-12.934-32.974-5.342c-10.802,7.594-13.55,22.292-6.14,32.834
			C93.511,248.714,108.274,251.107,119.075,243.514z"/>
		<g>
			<path style="fill:#D71921;" d="M119.167,243.644c10.875-7.644,13.642-22.446,6.183-33.059
				c-7.462-10.613-22.324-13.02-33.199-5.375c-10.875,7.645-13.642,22.441-6.18,33.057
				C93.429,248.879,108.292,251.289,119.167,243.644z"/>
			<path style="opacity:0.7;fill:#FFFFFF;" d="M98.37,220.164c3.082-5.287,2.87-11.088-0.476-12.955
				c-3.345-1.867-8.557,0.904-11.639,6.193c-3.087,5.285-2.873,11.085,0.474,12.953C90.076,228.225,95.286,225.451,98.37,220.164z"
				/>
			<path style="fill:#EC1C24;" d="M95.577,218.402l2.583-3.369c0.682-1.33,0.447-2.791-0.52-3.256l-3.437-0.488l-2.041-2.17
				c-0.966-0.469-2.301,0.229-2.979,1.56l-1.339,4.305l-2.51,3.235c-0.68,1.33-0.446,2.789,0.522,3.256l2.744,0.393l2.73,2.266
				c0.967,0.471,2.302-0.229,2.982-1.559L95.577,218.402z"/>
			<path style="fill:#FFFFFF;" d="M95.446,218.182c1.116-2.005,1.053-4.145-0.145-4.78c-1.198-0.639-3.073,0.469-4.19,2.475
				c-1.118,2.002-1.053,4.143,0.145,4.783C92.453,221.294,94.327,220.189,95.446,218.182z"/>
		</g>
	</g>
</g>
<path d="M56.359,0C25.247,0.035,0.035,25.247,0,56.359c0,30.385,52.328,87.459,54.558,89.876c0.463,0.503,1.116,0.788,1.801,0.788
	c0.684,0,1.336-0.286,1.801-0.788c2.23-2.417,54.558-59.491,54.558-89.876C112.683,25.247,87.471,0.035,56.359,0z M56.359,140.914
	C47.048,130.481,4.901,81.821,4.901,56.359c0-28.42,23.038-51.458,51.458-51.458s51.458,23.038,51.458,51.458
	C107.817,81.821,65.67,130.481,56.359,140.914z"/>
<g>
	<g>
		<path style="fill:#D71921;" d="M74.372,80.081c15.041-10.573,18.867-31.045,8.551-45.722
			c-10.32-14.679-30.876-18.007-45.917-7.434c-15.041,10.573-18.867,31.038-8.547,45.72C38.776,87.32,59.331,90.654,74.372,80.081z"
			/>
		<path style="opacity:0.7;fill:#FFFFFF;" d="M45.609,47.606c4.263-7.312,3.97-15.335-0.658-17.918
			c-4.626-2.582-11.834,1.251-16.097,8.566c-4.27,7.31-3.974,15.331,0.655,17.915C34.138,58.754,41.343,54.918,45.609,47.606z"/>
		<path style="fill:#EC1C24;" d="M41.746,45.169l3.572-4.66c0.943-1.84,0.619-3.86-0.719-4.503l-4.753-0.675l-2.823-3.001
			c-1.336-0.648-3.182,0.316-4.121,2.157l-1.852,5.954l-3.471,4.475c-0.94,1.839-0.617,3.857,0.723,4.503l3.795,0.543l3.776,3.133
			c1.337,0.651,3.184-0.316,4.125-2.156L41.746,45.169z"/>
		<path style="fill:#FFFFFF;" d="M41.565,44.865c1.544-2.773,1.456-5.732-0.2-6.611c-1.657-0.883-4.251,0.648-5.796,3.423
			c-1.546,2.769-1.456,5.731,0.2,6.615C37.425,49.168,40.017,47.641,41.565,44.865z"/>
	</g>
</g>
</svg>
