<?xml version="1.0" encoding="iso-8859-1"?>
<!-- Generator: Adobe Illustrator 22.1.0, SVG Export Plug-In . SVG Version: 6.00 Build 0)  -->
<svg version="1.1" id="&#x421;&#x43B;&#x43E;&#x439;_1"
	 xmlns="http://www.w3.org/2000/svg" xmlns:xlink="http://www.w3.org/1999/xlink" x="0px" y="0px" viewBox="0 0 246.112 169.194"
	 style="enable-background:new 0 0 246.112 169.194;" xml:space="preserve">
<g>
	<g>
		<path style="fill:#5A4A42;" d="M6.666,162.179c1.714,0,2.959-0.711,2.959-1.704c0-0.982-0.889-1.453-2.186-1.453
			c-0.805,0-1.589,0.251-2.163,0.523l-0.188-0.46c0.711-0.365,1.537-0.575,2.436-0.575c1.62,0,2.75,0.659,2.75,1.892
			c0,1.036-0.899,1.747-2.207,1.965v0.021c1.642,0.125,2.613,0.794,2.613,2.049c0,1.547-1.6,2.257-3.48,2.257
			c-0.879,0-1.736-0.157-2.477-0.502l0.209-0.48c0.679,0.282,1.504,0.48,2.309,0.48c1.819,0,2.802-0.773,2.802-1.755
			c0-1.391-1.715-1.767-3.387-1.767H6.27v-0.492H6.666z"/>
		<path style="fill:#5A4A42;" d="M20.893,165.18c0,0.459,0.03,1.056,0.125,1.495h-0.576l-0.115-1.066h-0.01
			c-0.355,0.471-1.202,1.086-2.426,1.086c-1.504,0-1.985-0.919-1.985-1.526c0-1.265,1.285-2.153,4.38-2.101
			c0-0.774-0.293-1.809-1.829-1.809c-0.669,0-1.327,0.157-1.913,0.575l-0.221-0.45c0.754-0.471,1.59-0.586,2.176-0.586
			c2.404,0,2.394,1.892,2.394,2.583V165.18z M20.295,163.507c-1.975-0.032-3.783,0.419-3.783,1.526c0,0.774,0.679,1.191,1.432,1.191
			c1.558,0,2.352-1.066,2.352-1.442V163.507z"/>
		<path style="fill:#5A4A42;" d="M27.54,160.925h4.379v0.48h-3.783v5.269H27.54V160.925z"/>
		<path style="fill:#5A4A42;" d="M37.584,163.81c0-1.914,1.41-3.011,2.968-3.011c1.788,0,2.928,1.266,2.928,2.875
			c0,2.133-1.62,3.021-2.989,3.021C38.744,166.695,37.584,165.43,37.584,163.81z M42.863,163.705c0-1.076-0.7-2.436-2.311-2.436
			c-1.558,0-2.352,1.213-2.352,2.499c0,1.526,1.056,2.456,2.31,2.456C41.692,166.225,42.863,165.315,42.863,163.705z"/>
		<path style="fill:#5A4A42;" d="M48.914,162.734c0-0.597-0.011-1.318-0.042-1.924h0.586l0.031,1.275h0.031
			c0.396-0.742,1.191-1.286,2.32-1.286c1.642,0,2.676,1.296,2.676,2.833c0,2.019-1.285,3.063-2.812,3.063
			c-0.889,0-1.693-0.355-2.153-1.118h-0.021v3.449h-0.617V162.734z M49.531,164.301c0,1.056,1.013,1.903,2.122,1.903
			c1.338,0,2.248-1.036,2.248-2.551c0-1.254-0.816-2.362-2.185-2.362c-1.631,0-2.185,1.463-2.185,1.985V164.301z"/>
		<path style="fill:#5A4A42;" d="M59.533,163.81c0-1.914,1.411-3.011,2.968-3.011c1.789,0,2.928,1.266,2.928,2.875
			c0,2.133-1.619,3.021-2.989,3.021C60.692,166.695,59.533,165.43,59.533,163.81z M64.811,163.705c0-1.076-0.7-2.436-2.311-2.436
			c-1.557,0-2.351,1.213-2.351,2.499c0,1.526,1.055,2.456,2.31,2.456C63.641,166.225,64.811,165.315,64.811,163.705z"/>
		<path style="fill:#5A4A42;" d="M76.047,160.925v5.184h0.7l-0.052,2.217h-0.491l-0.053-1.756h-5.394l-0.032,1.756h-0.513
			l-0.051-2.217h0.574c0.471-0.669,1.141-1.641,1.141-3.679v-1.505H76.047z M72.441,162.472c0,0.92-0.157,1.755-0.429,2.478
			c-0.167,0.439-0.376,0.794-0.617,1.149h4.057v-4.704h-3.011V162.472z"/>
		<path style="fill:#5A4A42;" d="M81.879,160.81h0.605v2.53h3.879v-2.53h0.605v5.865h-0.605v-2.844h-3.879v2.844h-0.605V160.81z"/>
		<path style="fill:#5A4A42;" d="M92.959,160.81v2.153c0.355-0.042,0.825-0.062,1.211-0.062c1.318,0,2.928,0.429,2.928,1.85
			c0,0.554-0.23,0.951-0.596,1.233c-0.658,0.544-1.684,0.648-2.676,0.648c-0.617,0-1.129-0.053-1.463-0.085v-5.738H92.959z
			 M92.959,166.131c0.291,0.01,0.596,0.042,1.045,0.042c1.285,0,2.498-0.345,2.498-1.39c0-1.098-1.296-1.423-2.53-1.423
			c-0.345,0-0.657,0.021-1.013,0.053V166.131z M97.851,160.82h0.596v5.854h-0.596V160.82z"/>
		<path style="fill:#5A4A42;" d="M103.829,160.81h0.586v2.905c0,0.899,0,1.453-0.063,2.269l0.053,0.01
			c0.46-0.699,0.741-1.181,1.285-1.892l2.54-3.292h0.689v5.865h-0.585v-2.948c0-0.962,0.011-1.516,0.063-2.237h-0.084
			c-0.522,0.742-0.941,1.39-1.411,1.997c-0.679,0.836-1.61,2.153-2.446,3.188h-0.627V160.81z M108.032,158.646
			c-0.054,0.878-0.711,1.306-1.684,1.306c-1.182,0-1.578-0.617-1.631-1.306h0.512c0.053,0.542,0.366,0.92,1.129,0.92
			c0.826,0,1.077-0.377,1.161-0.92H108.032z"/>
		<path style="fill:#5A4A42;" d="M118.053,160.81h0.596v2.665h0.324l3.209-2.665h0.868l-3.388,2.728
			c1.266,0.094,2.039,0.689,2.666,1.819c0.166,0.324,0.492,0.909,0.794,1.318h-0.7c-0.197-0.252-0.543-0.837-0.753-1.223
			c-0.814-1.516-2.143-1.516-3.021-1.516v2.739h-0.596V160.81z"/>
		<path style="fill:#5A4A42;" d="M128.412,163.81c0-1.914,1.411-3.011,2.969-3.011c1.788,0,2.927,1.266,2.927,2.875
			c0,2.133-1.619,3.021-2.989,3.021C129.572,166.695,128.412,165.43,128.412,163.81z M133.69,163.705
			c0-1.076-0.699-2.436-2.31-2.436c-1.558,0-2.352,1.213-2.352,2.499c0,1.526,1.056,2.456,2.31,2.456
			C132.52,166.225,133.69,165.315,133.69,163.705z"/>
		<path style="fill:#5A4A42;" d="M139.282,160.925h6.084v0.48h-2.771v5.269h-0.605v-5.269h-2.707V160.925z"/>
		<path style="fill:#5A4A42;" d="M150.256,160.925h6.084v0.48h-2.771v5.269h-0.605v-5.269h-2.707V160.925z"/>
		<path style="fill:#5A4A42;" d="M162.181,163.778c-0.011,1.589,1.067,2.436,2.426,2.436c1.015,0,1.495-0.199,1.872-0.366
			l0.156,0.449c-0.199,0.094-0.848,0.397-2.092,0.397c-1.777,0-2.958-1.171-2.958-2.801c0-1.934,1.276-3.095,2.895-3.095
			c2.133,0,2.51,1.809,2.51,2.624c0,0.136,0,0.261-0.031,0.355H162.181z M166.405,163.318c0.011-0.543-0.23-2.069-1.996-2.069
			c-1.484,0-2.102,1.213-2.228,2.069H166.405z"/>
		<path style="fill:#5A4A42;" d="M177.85,160.925v5.184h0.699l-0.052,2.217h-0.491l-0.053-1.756h-5.394l-0.032,1.756h-0.512
			l-0.052-2.217h0.575c0.471-0.669,1.14-1.641,1.14-3.679v-1.505H177.85z M174.243,162.472c0,0.92-0.156,1.755-0.428,2.478
			c-0.168,0.439-0.376,0.794-0.617,1.149h4.057v-4.704h-3.012V162.472z"/>
		<path style="fill:#5A4A42;" d="M187.497,160.81h0.596v2.676h0.24l2.499-2.676h0.742l-2.655,2.738
			c1.056,0.095,1.609,0.544,2.06,1.568c0.177,0.46,0.386,1.056,0.679,1.558h-0.596c-0.271-0.482-0.449-0.952-0.638-1.401
			c-0.565-1.307-1.39-1.348-2.331-1.348v2.749h-0.596v-2.749c-0.973,0-1.767,0.042-2.331,1.358c-0.189,0.45-0.365,0.909-0.638,1.391
			h-0.596c0.293-0.513,0.502-1.098,0.68-1.558c0.459-1.014,1.003-1.474,2.059-1.568l-2.654-2.738h0.742l2.498,2.676h0.24V160.81z"/>
		<path style="fill:#5A4A42;" d="M195.471,163.089h2.812v0.543h-2.812V163.089z"/>
		<path style="fill:#5A4A42;" d="M202.057,160.81h0.596v2.665h0.323l3.21-2.665h0.867l-3.388,2.728
			c1.266,0.094,2.038,0.689,2.666,1.819c0.167,0.324,0.491,0.909,0.794,1.318h-0.699c-0.199-0.252-0.544-0.837-0.754-1.223
			c-0.814-1.516-2.143-1.516-3.02-1.516v2.739h-0.596V160.81z"/>
		<path style="fill:#5A4A42;" d="M213.459,160.925h4.589v5.749h-0.607v-5.259h-3.397v1.757c0,1.787-0.167,2.833-0.993,3.292
			c-0.23,0.136-0.522,0.23-0.742,0.23l-0.062-0.522c1.182-0.209,1.213-1.537,1.213-2.938V160.925z"/>
		<path style="fill:#5A4A42;" d="M224.206,160.81l1.703,3.826c0.156,0.355,0.355,0.847,0.471,1.213h0.02
			c0.127-0.366,0.283-0.795,0.471-1.254l1.6-3.784h0.648l-2.07,4.787c-0.773,1.747-1.275,2.583-2.027,3.095
			c-0.502,0.355-0.951,0.491-1.066,0.502l-0.156-0.512c1.641-0.429,2.216-2.248,2.216-2.29c0-0.042-0.031-0.126-0.084-0.251
			l-2.393-5.331H224.206z"/>
		<path style="fill:#5A4A42;" d="M239.507,158.646c-0.304,0.115-0.826,0.219-1.234,0.282c-1.923,0.293-2.958,1.056-3.208,3.22h0.031
			c0.438-0.899,1.432-1.35,2.341-1.35c1.505,0,2.697,1.066,2.697,2.844c0,1.787-0.952,3.052-2.823,3.052
			c-1.975,0-2.822-1.714-2.822-3.805c0-3.846,2.52-4.265,3.639-4.453c0.469-0.083,0.972-0.199,1.4-0.344L239.507,158.646z
			 M237.322,161.259c-1.015,0-2.163,0.742-2.163,2.279c0,0.961,0.563,2.686,2.185,2.686c1.558,0,2.175-1.233,2.175-2.509
			C239.518,162.702,239.037,161.259,237.322,161.259z"/>
	</g>
	<g>
		<path style="fill:#007236;" d="M121.717,98.131c-0.667,3.134-1.367,5.434-2.1,6.9c-1.601,3.067-4,4.6-7.2,4.6
			c-1.534,0-3-0.466-4.4-1.4c-1.067,0.6-2.167,0.9-3.3,0.9c-1.935,0-3.534-0.866-4.8-2.6v2.2c-0.067,6.065-0.034,11.065,0.1,15
			c0.133,4.333,0.2,6.865,0.2,7.6c0,1.533-0.467,2.3-1.4,2.3c-0.934,0-1.399-0.734-1.399-2.2c0-0.4,0.133-2.834,0.399-7.3
			c0.2-4.134,0.266-9.367,0.2-15.7v-29.1c0-0.2,0-0.465,0-0.8c0-0.333,0-0.565,0-0.7c0-1.933,0.533-2.9,1.601-2.9
			c1.065,0,1.6,0.535,1.6,1.6c0,0.267-0.034,0.667-0.1,1.2c-0.067,0.534-0.101,0.9-0.101,1.1c0,0.2,0,0.467,0,0.8
			c1.666-3.133,3.766-4.7,6.3-4.7c2,0,3.733,1.435,5.2,4.3c1.601,3.134,2.4,7.067,2.4,11.8c0,7.2-1.768,12.5-5.3,15.9
			c0.8,0.6,1.766,0.9,2.899,0.9c3.533,0,5.933-2.732,7.2-8.2c0.333-1.666,0.7-2.5,1.1-2.5
			C121.55,97.131,121.85,97.465,121.717,98.131z M106.317,107.031c-2.8-2.333-4.867-5.766-6.199-10.3c0,0.467-0.035,2.1-0.101,4.9
			c0.933,3.734,2.633,5.6,5.101,5.6C105.517,107.231,105.917,107.165,106.317,107.031z M112.017,91.731
			c0-3.666-0.567-6.816-1.7-9.45c-1.134-2.633-2.634-3.95-4.5-3.95c-1.399,0-2.634,0.835-3.699,2.5
			c-1.067,1.668-1.601,3.8-1.601,6.4c0,8.467,2.466,14.667,7.4,18.6C110.65,102.898,112.017,98.198,112.017,91.731z"/>
		<path style="fill:#007236;" d="M135.116,67.631c0,1.8-0.566,6.634-1.699,14.5c-1.135,7.867-1.7,13.467-1.7,16.8
			c0,3.2,0.165,6.65,0.5,10.35c0.333,3.7,0.5,6.65,0.5,8.85c0,13-4.167,19.5-12.5,19.5c-1.935,0-2.9-0.567-2.9-1.7
			c0-0.667,0.266-1.267,0.8-1.8c0.533-0.535,1.133-0.8,1.801-0.8c0.399,0,0.832,0.166,1.3,0.5c0.466,0.333,0.899,0.5,1.3,0.5
			c3.865,0,6.333-2.867,7.4-8.6c0.4-2.135,0.6-6.667,0.6-13.6c0-4.666-0.2-7.533-0.6-8.6c-0.2,1.4-0.7,2.967-1.5,4.7
			c-1.135,2.534-2.335,3.8-3.601,3.8c-1.334,0-2.467-1-3.399-3c-1.2-2.6-1.801-6.333-1.801-11.2v-1.7c0-9.733,0.733-14.6,2.2-14.6
			c0.8,0,1.2,2.1,1.2,6.3c0,1.335-0.217,3.467-0.65,6.4c-0.434,2.934-0.649,4.667-0.649,5.2c0,5.335,1.133,8,3.399,8
			c1.601,0,2.833-1.933,3.7-5.8c0.866-3.466,1.3-7.866,1.3-13.2c0-6.533,0.233-12.533,0.7-18c0.666-7.065,1.565-10.6,2.7-10.6
			C134.582,59.83,135.116,62.431,135.116,67.631z"/>
		<path style="fill:#007236;" d="M161.915,99.83c0,3.135-1.35,6.135-4.05,9c-2.7,2.867-5.617,4.3-8.75,4.3c-4.268,0-7.5-1.333-9.7-4
			c-1.867-2.333-2.8-5.433-2.8-9.3c0-4.732,1.25-9.183,3.75-13.35c2.5-4.166,5.35-6.25,8.55-6.25c1.8,0,3.266,0.867,4.4,2.6
			c0.933,1.6,1.399,3.567,1.399,5.9c0,2.267-0.517,4.234-1.55,5.9c-1.034,1.667-2.484,2.5-4.35,2.5c-0.601,0-0.9-0.233-0.9-0.7
			c0-0.465,0.333-0.7,1-0.7c0.933,0,1.7-0.766,2.3-2.3c0.601-1.533,0.9-3.3,0.9-5.3c0-4.333-1.135-6.5-3.4-6.5
			c-2.334,0-4.384,1.884-6.149,5.65c-1.768,3.767-2.65,7.784-2.65,12.05c0,8,2.9,12,8.7,12c3.2,0,5.899-1.365,8.1-4.1
			c1.733-2,2.933-4.4,3.601-7.2c0.199-1,0.532-1.5,1-1.5C161.714,98.531,161.915,98.965,161.915,99.83z"/>
		<path style="fill:#007236;" d="M162.714,109.931c0,1.867,0,3.05,0,3.55s-0.3,0.75-0.899,0.75c-0.867,0-1.301-0.635-1.301-1.9v-8.9
			c-0.066-2.332-0.1-4.332-0.1-6c0-1.665,0-3.033,0-4.1c0-13.933,0.832-20.9,2.5-20.9c0.666,0,1,1.7,1,5.1
			c0,0.467-0.051,1.334-0.15,2.6c-0.1,1.267-0.284,2.934-0.55,5c-0.335,2.934-0.534,5.267-0.601,7l5.801-0.7
			c0.065-1,0.15-2.05,0.25-3.15c0.1-1.1,0.25-2.35,0.449-3.75c0.201-1.4,0.451-3.016,0.75-4.85c0.301-1.832,0.65-3.95,1.051-6.35
			c0.199-0.8,0.5-1.332,0.9-1.6c0.399-0.266,0.782-0.366,1.149-0.3c0.366,0.067,0.7,0.217,1,0.45c0.3,0.234,0.483,0.45,0.55,0.65
			c-0.135-0.266-0.734,2.634-1.8,8.7c-0.534,3.334-0.95,6.784-1.25,10.35c-0.3,3.567-0.45,7.317-0.45,11.25c0,4.935,0.9,7.4,2.7,7.4
			c1.065,0,2.366-1.3,3.899-3.9c1.066-2.065,1.801-3.933,2.201-5.6c0.199-0.6,0.465-0.9,0.799-0.9c0.601,0,0.9,0.4,0.9,1.2
			c0,0.067-0.034,0.267-0.1,0.6c-0.268,1.4-1.168,3.467-2.7,6.2c-1.867,3.467-3.667,5.2-5.399,5.2c-3.268,0-4.9-6.2-4.9-18.6v-0.8
			l-5.9,0.4v0.7L162.714,109.931z"/>
		<path style="fill:#007236;" d="M203.114,97.33c0,1.867-0.834,4.768-2.5,8.7c-1.867,4.667-3.768,7-5.699,7
			c-2.335,0-3.801-3.133-4.4-9.4c-0.801,5.6-2.4,8.4-4.801,8.4c-3.666,0-5.5-5.065-5.5-15.2c0-4.6,0.4-9.033,1.201-13.3
			c0.799-4.266,1.665-6.4,2.6-6.4c0.732,0,1.1,0.634,1.1,1.9c0,0.334-0.417,2.534-1.25,6.6c-0.834,4.067-1.25,8.667-1.25,13.8
			c0,5.335,1.133,8,3.4,8c2.133,0,3.6-3.1,4.4-9.3c0.332-2.666,0.665-5.366,1-8.1c0.6-4.333,1.332-6.5,2.199-6.5
			c0.6,0,0.9,0.334,0.9,1c0,0.134-0.234,1.8-0.7,5c-0.601,3.734-0.899,7.435-0.899,11.1c0,6.134,0.799,9.2,2.399,9.2
			c1.133,0,2.433-1.7,3.899-5.1c1.334-3,2.066-5.366,2.201-7.1c0.064-0.733,0.299-1.1,0.699-1.1
			C202.78,96.531,203.114,96.798,203.114,97.33z"/>
		<path style="fill:#007236;" d="M203.413,100.131c-0.066,1.467-0.084,2.967-0.05,4.5c0.033,1.534,0.05,2.667,0.05,3.4
			c0,0.867,0.133,1.867,0.4,3c0.266,1.134,0.4,1.834,0.4,2.1c-0.067,0.733-0.268,1.1-0.601,1.1c-1.467,0-2.167-0.635-2.1-1.9
			c0-1.2,0.016-2.715,0.05-4.55c0.033-1.833,0.033-3.766,0-5.8c-0.034-2.033-0.05-4.033-0.05-6c0-1.966,0.032-3.683,0.1-5.15
			c0-3.465,0.101-6.232,0.3-8.3c0.2-2.065,0.416-3.633,0.65-4.7c0.232-1.065,0.482-1.75,0.75-2.05c0.266-0.3,0.533-0.45,0.8-0.45
			c0.333,0,0.5,0.418,0.5,1.25c0,0.835-0.034,2.117-0.1,3.85c0,0.2-0.034,1.067-0.101,2.6c-0.066,1.534-0.167,3.467-0.3,5.8
			c0.466-1.533,1.05-3,1.75-4.4c0.7-1.4,1.483-2.65,2.351-3.75c0.865-1.1,1.732-1.965,2.6-2.6c0.865-0.633,1.666-0.95,2.4-0.95
			c1.532,0,2.782,0.567,3.75,1.7c0.965,1.135,1.449,2.635,1.449,4.5c-0.134,0.668-0.417,1.217-0.85,1.65
			c-0.434,0.434-0.9,0.717-1.4,0.85c-0.5,0.135-0.934,0.067-1.3-0.2c-0.367-0.266-0.484-0.8-0.35-1.6c0.066-2-0.734-3-2.4-3
			c-0.867,0-1.685,0.384-2.45,1.15c-0.767,0.767-1.5,1.767-2.199,3c-0.7,1.234-1.335,2.617-1.9,4.15
			c-0.567,1.535-1.018,3.067-1.35,4.6c1.133-0.866,2.315-1.266,3.55-1.2c1.232,0.067,2.115,0.367,2.649,0.9
			c0.533,0.534,0.833,1.334,0.9,2.4c0.066,1.067,0.1,2.3,0.1,3.7c0,1,0,2.017,0,3.05c0,1.034,0.066,1.95,0.2,2.75
			c0.133,0.8,0.4,1.45,0.8,1.95c0.4,0.5,1,0.75,1.801,0.75c0.665,0,1.383-0.366,2.149-1.1c0.766-0.733,1.483-1.65,2.15-2.75
			c0.665-1.1,1.25-2.266,1.75-3.5c0.5-1.233,0.816-2.316,0.95-3.25c0.133-0.733,0.399-1.1,0.8-1.1c0.665,0,1,0.267,1,0.8
			c-0.067,0.867-0.4,2.185-1,3.95c-0.601,1.767-1.317,3.517-2.15,5.25c-0.834,1.734-1.75,3.25-2.75,4.55c-1,1.3-1.899,1.95-2.7,1.95
			c-1.267,0-2.267-0.45-3-1.35c-0.734-0.9-1.267-2.033-1.6-3.4c-0.334-1.366-0.518-2.9-0.55-4.6c-0.034-1.7-0.018-3.415,0.05-5.15
			c0-1.333-0.234-2.266-0.7-2.8c-0.467-0.533-1-0.8-1.6-0.8c-0.601,0-1.218,0.2-1.851,0.6c-0.634,0.4-1.149,0.9-1.55,1.5
			c0,0.534-0.034,1.05-0.1,1.55C203.446,99.08,203.413,99.598,203.413,100.131z"/>
		<path style="fill:#007236;" d="M246.112,97.33c0,1.8-0.799,4.567-2.399,8.3c-1.867,4.4-3.7,6.6-5.5,6.6
			c-2.667,0-4.167-2.333-4.5-7h-0.2c-3,6.4-5.734,9.6-8.199,9.6c-2.601,0-3.9-2.633-3.9-7.9c0-4.866,1.566-9.5,4.699-13.9
			c2.934-4.2,5.967-6.466,9.101-6.8c0.2-2.133,0.3-3.4,0.3-3.8c0-3.4-1.066-5.1-3.199-5.1c-1.201,0-2.335,0.768-3.4,2.3
			c-1.067,1.534-1.6,3.3-1.6,5.3c0,1.467-0.436,2.2-1.301,2.2c-1,0-1.5-0.733-1.5-2.2c0-1.8,0.816-3.75,2.45-5.85
			c1.633-2.1,3.415-3.15,5.351-3.15c3.799,0,5.699,2.7,5.699,8.1c0,2.134-0.234,5.384-0.699,9.75
			c-0.468,4.367-0.701,7.484-0.701,9.35c0,3.6,0.601,5.4,1.801,5.4c1.266,0,2.566-1.5,3.9-4.5c1.199-2.533,1.865-4.666,2-6.4
			c0.064-0.733,0.365-1.1,0.899-1.1C245.813,96.531,246.112,96.798,246.112,97.33z M235.112,88.131c-2.666,0.4-5.166,2.4-7.5,6
			c-2.334,3.6-3.5,7.3-3.5,11.1c0,2.867,0.834,4.3,2.5,4.3c1.467,0,3.201-1.75,5.201-5.25s3-6.416,3-8.75
			C234.813,93.531,234.913,91.065,235.112,88.131z"/>
		<g>
			<path style="fill:#007236;" d="M45.518,25.311c-1.467,0.8-2.767,2.55-3.899,5.25c-1.135,2.7-2.085,5.885-2.851,9.55
				c-0.767,3.667-1.267,7.534-1.5,11.6c-0.234,4.067-0.134,7.867,0.301,11.4c0.433,3.534,1.215,6.567,2.35,9.1
				c1.133,2.534,2.732,4.034,4.8,4.5c1.601,0.4,3-0.4,4.2-2.4s2.2-5.1,3-9.3c1-5.666,0.933-10.3-0.2-13.9
				c-1-3.6-2.467-5.533-4.399-5.8c-0.468-0.065-0.7-0.4-0.7-1c0.065-0.4,0.333-0.565,0.8-0.5c3,0.6,5.2,3.3,6.6,8.1
				c1.2,4.667,1.4,9.535,0.601,14.6c-0.4,1.935-0.885,3.6-1.45,5c-0.567,1.4-1.317,2.667-2.25,3.8c-1.935,2.2-4.167,3.067-6.7,2.6
				c-4.467-0.665-7.7-4.965-9.7-12.9c-0.867-2.866-1.399-5.983-1.6-9.35c-0.2-3.366-0.084-6.715,0.35-10.05
				c0.434-3.333,1.2-6.55,2.301-9.65c1.1-3.1,2.55-5.783,4.35-8.05c1.6-2.065,3.3-3.533,5.1-4.4c1.801-0.866,3.766-1.1,5.9-0.7
				c2.333,0.467,4.732,1.217,7.2,2.25c2.466,1.035,4.966,2.15,7.5,3.35l-0.101-2c0-0.065,0-0.183,0-0.35
				c0-0.165-0.034-0.383-0.1-0.65v-1.1c0-2.533,0.565-3.8,1.7-3.8c2,0,3,1.834,3,5.5v4.7c1.133,0.534,2.25,1.1,3.35,1.7
				c1.101,0.6,2.183,1.1,3.25,1.5c4.666,1.734,8.766,1.884,12.3,0.45c3.533-1.433,6.366-4.55,8.5-9.35
				c0.066-0.133,0.166-0.183,0.301-0.15c0.133,0.034,0.266,0.05,0.399,0.05c0.065,0,0.166,0.1,0.3,0.3l0.101,0.2
				c-1.2,3.6-3.101,6.55-5.7,8.85c-2.6,2.3-5.935,3.45-10,3.45c-2.067,0-4.185-0.166-6.35-0.5c-2.168-0.333-4.351-0.933-6.551-1.8
				c0,1.867-0.017,3.817-0.05,5.85c-0.034,2.034-0.084,4.45-0.149,7.25h1.199c3.666,0,7.033,0.7,10.101,2.1
				c3.065,1.4,5.716,3.4,7.95,6c2.232,2.6,3.965,5.734,5.199,9.4c1.233,3.667,1.851,7.734,1.851,12.2c0,4.2-0.567,8.25-1.7,12.15
				c-1.135,3.9-2.7,7.35-4.7,10.35s-4.35,5.383-7.05,7.15c-2.7,1.766-5.617,2.65-8.75,2.65c-1.8,0-3.534-0.367-5.2-1.1
				c0,3.333-0.467,5-1.399,5c-0.935,0-1.4-1.967-1.4-5.9c-2.734-2.335-4.1-5.435-4.1-9.3c0-0.8,0.232-1.2,0.699-1.2
				c0.333,1.133,0.633,2.1,0.9,2.9c0.266,0.8,0.615,1.633,1.05,2.5c0.433,0.866,0.95,1.6,1.55,2.2
				c0.266-9.267,0.45-16.516,0.551-21.75c0.1-5.233,0.149-8.616,0.149-10.15c-0.067-6.666-0.134-12.7-0.2-18.1
				s-0.199-10.533-0.399-15.4l-0.3-6.6c-2-0.933-3.95-1.966-5.851-3.1c-1.899-1.133-3.734-2.15-5.5-3.05
				c-1.767-0.9-3.399-1.583-4.899-2.05C48.069,24.946,46.718,24.912,45.518,25.311z M68.819,106.912c1.465,0.733,3.232,1.1,5.3,1.1
				c2.399,0,4.7-0.884,6.899-2.65c2.2-1.767,4.133-4.1,5.801-7c1.665-2.9,2.982-6.25,3.949-10.05c0.966-3.8,1.45-7.7,1.45-11.7
				c0-3.933-0.5-7.533-1.5-10.8c-1-3.266-2.417-6.065-4.25-8.4c-1.834-2.333-4.017-4.15-6.55-5.45c-2.534-1.3-5.334-1.95-8.4-1.95
				h-1.699c-0.135,6.867-0.285,15-0.45,24.4C69.202,83.812,69.018,94.646,68.819,106.912z"/>
			<path style="fill:#007236;" d="M81.315,60.519c-0.752-1.03-3.793,0.159-3.03,1.202c2.134,2.92,3.495,6.439,1.862,9.617
				c-2.668,5.192-8.542,2.918-11.341,0.072c-4.626-4.704-9.748-17.213-1.35-21.023c1.173-0.532,0.155-2.255-1.01-1.727
				c-11.178,5.071-3.067,20.424,3.582,25.546C79.008,81.123,86.929,68.203,81.315,60.519z"/>
		</g>
	</g>
	<g>
		<g>
			<defs>
				<path id="SVGID_1_" d="M11.171,0.263c-0.939,0.153-1.92,0.628-2.615,0.999C7.99,1.579,7.382,2.078,6.87,2.467
					C5.488,3.521,4.314,4.845,3.351,6.396c-1.399,2.254-2.355,4.986-2.865,8.067C-1.448,26.117,2.65,38.488,8.218,48.588
					c6.609,11.932,15.736,20.676,24.368,24.348c2.874,1.223,5.693,1.884,8.345,1.913c1.826,0.021,3.573-0.258,5.205-0.86
					c0.602-0.222,1.189-0.488,1.758-0.798c0.633-0.36,0.676-0.352,0.691-0.344c0.017,0.008,0.005,0.016,0.602-0.392
					c5.459-3.73,6.125-8.506,6.761-12.344c1.536-9.253-0.941-21.648-7.46-33.629l-0.137-0.249
					C41.732,14.174,32.536,5.336,23.847,1.639C21.286,0.55,17.835,0,14.699,0C13.447,0,12.246,0.087,11.171,0.263"/>
			</defs>
			<clipPath id="SVGID_2_">
				<use xlink:href="#SVGID_1_"  style="overflow:visible;"/>
			</clipPath>
			<g style="clip-path:url(#SVGID_2_);">
				<path style="fill:#007B3A;" d="M11.032,0.48c3.003-1.118,5.797-1.029,8.675-0.165c1.561,0.433,1.846,0.641,2.768,0.985
					c6.818,2.538,12.412,6.779,17.148,12.114c9.864,11.112,15.875,24.038,17.278,38.915c0.457,4.853-0.019,9.731-1.812,14.305
					c-1.783,4.549-5.523,7.105-9.977,8.726c-2.579,0.952-5.259,0.755-7.68,0c-7.453-2.601-13.905-6.721-19.11-12.696
					C7.327,50.045,0.074,35.914,0.455,18.657C0.633,10.611,3.413,4.158,11.032,0.48z M25.419,66.734
					c0.083,0.569,0.399,0.891,0.983,0.929c0.163,0.161,0.325,0.322,0.487,0.483c2.148,2.294,4.855,3.621,7.869,4.238
					c3.618,0.741,5.8-0.878,6.476-4.584c0.114-0.626,0.136-1.268,0.247-1.895c0.261-1.476,1.062-2.285,2.655-2.053
					c0.162,0.319,0.324,0.638,0.486,0.958c0.253,0.659,0.466,1.338,0.77,1.973c0.263,0.55,0.504,1.295,1.314,1.112
					c0.764-0.173,0.778-0.897,0.801-1.537c0.021-0.56,0.001-1.112-0.426-1.55c-0.16-0.792-0.32-1.583-0.48-2.375
					c2.895-3.166,3.416-7.252,3.116-11.083c-0.305-3.902-1.497-7.883-3.052-11.506c-3.015-7.024-6.282-13.997-11.318-19.881
					c-2.271-2.653-4.533-5.415-7.59-7.229c-3.63-2.154-7.753-3.352-11.312-5.681c-0.841-0.55-1.857-1.241-2.88-0.488
					c-1.11,0.816-0.401,1.891-0.118,2.85c0.84,2.845,0.685,2.855-2.18,2.708c-2.313-0.118-4.954-1.057-6.92,0.687
					c-1.78,1.58-2.999,3.734-2.902,6.312c0.17,4.532,0.273,9.116,1.484,13.488c2.13,7.689,5.172,15.038,9.889,21.544
					c0.846,1.166,1.422,3.011,3.433,2.992c0.3,0.009,0.601,0.018,0.901,0.027c0.035,0.305,0.07,0.61,0.106,0.915
					c-0.832,0.839-0.192,1.443,0.363,2.005c1.946,1.972,3.922,3.916,5.874,5.882C24.034,66.517,24.669,66.755,25.419,66.734z"/>
				<path style="fill:#1F9541;" d="M26.89,68.147c-0.163-0.161-0.325-0.322-0.488-0.483c0.007-0.321,0.013-0.643,0.02-0.964
					c0.921-0.042,1.67,0.478,2.498,0.746c2.684,0.868,4.565-0.563,4.103-3.319c-0.897-5.342-2.231-10.564-4.395-15.578
					c-2.191-5.078-4.931-9.809-7.926-14.444c-3.345-5.177-7.564-9.392-12.774-12.618c-2.521-1.561-3.71-0.869-4.078,2.14
					c-0.171,1.4,0.409,2.881-0.454,4.205c-1.116-2.919-0.508-5.954-0.445-8.917c0.071-3.343,2.022-4.196,4.995-2.58
					c3.983,2.165,7.772,4.608,11.354,7.392c0.747,0.581,1.595,1.652,2.72,0.986c0.978-0.579,0.379-1.753,0.545-2.65
					c3.006,3.417,5.082,7.441,7.199,11.402c2.986,5.586,6.46,10.932,8.64,16.931c-2.701-1.039-3.24-0.775-2.834,2.175
					c0.659,4.784,1.486,9.524,1.535,14.387c0.015,1.561,0.488,3.178-1.013,4.034c-1.267,0.722-2.698,0.053-3.995-0.621
					C30.423,69.499,28.88,68.286,26.89,68.147z"/>
				<path style="fill:#00883F;" d="M22.565,22.061c-0.167,0.898,0.432,2.072-0.546,2.65c-1.125,0.666-1.973-0.405-2.72-0.986
					c-3.582-2.785-7.37-5.227-11.354-7.392c-2.972-1.615-4.924-0.763-4.995,2.58c-0.063,2.963-0.672,5.998,0.444,8.917
					c0.01,0.397-0.058,0.815,0.042,1.188c1.833,6.824,3.882,13.592,7.418,19.749c1.223,2.128,2.164,4.605,4.478,5.972
					c0.309,0.327,0.617,0.655,0.926,0.982c-0.003,0.475-0.006,0.949-0.009,1.424c-2.01,0.019-2.586-1.826-3.432-2.992
					C8.102,47.648,5.06,40.299,2.93,32.61c-1.211-4.372-1.313-8.955-1.484-13.488c-0.097-2.578,1.122-4.733,2.902-6.312
					c1.966-1.744,4.607-0.805,6.92-0.687c2.865,0.146,3.02,0.137,2.18-2.708c-0.283-0.959-0.992-2.034,0.118-2.85
					c1.023-0.753,2.039-0.062,2.88,0.488c3.559,2.329,7.682,3.527,11.312,5.681c3.057,1.814,5.319,4.575,7.59,7.229
					c5.036,5.884,8.303,12.857,11.318,19.881c1.555,3.624,2.747,7.604,3.052,11.506c0.3,3.831-0.222,7.917-3.117,11.083
					c-0.661-3.927-1.415-7.84-1.963-11.783c-1.101-7.934-3.775-15.253-7.983-22.072c-4.087-6.624-9.968-11.533-15.56-16.725
					c-1.456-1.351-3.098-2.502-4.662-3.735c-0.469-0.37-1.018-0.533-1.562-0.218c-0.49,0.284-0.564,0.86-0.341,1.273
					c1.19,2.194,1.55,4.952,4.139,6.213c0.387,1.149,0.925,2.191,2.009,2.849C20.921,19.701,22.482,20.517,22.565,22.061z"/>
				<path style="fill:#77B83F;" d="M16.26,55.722c-0.309-0.327-0.617-0.655-0.926-0.982c0.208-2.146-1.656-3.174-2.594-4.679
					c-2.124-3.408-3.319-7.234-5.114-10.784c-1.265-2.501-1.542-5.177-1.354-7.901c0.148-2.148,1.207-2.561,2.974-1.242
					c0.954,0.712,1.954,1.413,2.74,2.291c6.588,7.37,10.693,16.112,13.851,25.361c0.203,0.596,0.227,1.251,0.365,1.871
					c0.157,0.707,0.412,1.476-0.249,2.002c-0.564,0.449-1.195-0.017-1.812-0.121c-1.591-0.268-2.761-1.664-4.457-1.591
					c-0.999-0.371-1.1-1.914-2.425-1.861c-0.035-0.305-0.07-0.61-0.105-0.916C18.12,55.907,17.03,55.914,16.26,55.722z"/>
				<path style="fill:#1F9541;" d="M18.67,15.385c-2.589-1.261-2.949-4.02-4.139-6.213c-0.224-0.412-0.15-0.988,0.341-1.273
					c0.544-0.315,1.092-0.152,1.562,0.218c1.564,1.233,3.207,2.384,4.662,3.735c5.592,5.192,11.473,10.102,15.56,16.725
					c4.208,6.819,6.882,14.139,7.983,22.072c0.547,3.942,1.301,7.856,1.963,11.783c0.161,0.792,0.321,1.583,0.48,2.375
					c-0.819,0.562-1.64,0.126-2.459,0.003c-0.162-0.319-0.324-0.638-0.486-0.958c0.069-2.018-2.215-3.187-1.909-5.29
					c0.632,0.196,1.072,1.177,1.885,0.571c0.691-0.515,0.437-1.258,0.311-1.981c-0.466-2.679-1.446-5.22-2.083-7.845
					c-2.829-11.647-8.511-21.66-16.778-30.297c-1.543-1.612-2.93-3.306-4.898-4.465C19.43,13.82,18.931,14.141,18.67,15.385z"/>
				<path style="fill:#00883F;" d="M42.229,58.563c-0.306,2.104,1.978,3.272,1.909,5.29c-1.593-0.232-2.394,0.577-2.655,2.053
					c-0.111,0.627-0.133,1.269-0.247,1.895c-0.676,3.706-2.858,5.325-6.476,4.584c-3.014-0.617-5.721-1.944-7.869-4.238
					c1.991,0.14,3.534,1.352,5.207,2.223c1.296,0.675,2.728,1.344,3.995,0.621c1.502-0.856,1.029-2.473,1.013-4.034
					c-0.048-4.863-0.876-9.604-1.535-14.387c-0.406-2.95,0.133-3.213,2.834-2.174c0.445,0.881,1.013,1.715,1.048,2.752
					c-0.077,0.649,0.219,1.006,0.857,1.095c0.143,0.025,0.286,0.044,0.43,0.057C41.227,55.723,42.14,56.999,42.229,58.563z"/>
				<path style="fill:#00883F;" d="M17.259,58.087c1.325-0.053,1.425,1.49,2.425,1.861c0.82,1.428,2.075,2.436,3.323,3.453
					c0.243,1.521,1.819,2.059,2.436,3.304l-0.023,0.029c-0.749,0.021-1.384-0.218-1.923-0.761c-1.952-1.966-3.928-3.91-5.874-5.882
					C17.067,59.53,16.427,58.926,17.259,58.087z"/>
				<path style="fill:#00883F;" d="M44.623,64.811c0.82,0.123,1.64,0.559,2.459-0.003c0.427,0.439,0.448,0.991,0.427,1.551
					c-0.024,0.641-0.037,1.365-0.801,1.537c-0.811,0.183-1.052-0.562-1.314-1.112C45.089,66.149,44.876,65.47,44.623,64.811z"/>
				<path style="fill:#53A641;" d="M16.26,55.722c0.77,0.191,1.86,0.185,0.895,1.449c-0.301-0.008-0.602-0.017-0.903-0.026
					C16.254,56.671,16.257,56.197,16.26,55.722z"/>
				<path style="fill:#00883F;" d="M26.422,66.699c-0.007,0.322-0.014,0.643-0.02,0.965c-0.584-0.039-0.9-0.361-0.983-0.929
					c0,0,0.023-0.028,0.023-0.028c0.322-0.005,0.645-0.009,0.967-0.014C26.409,66.692,26.422,66.699,26.422,66.699z"/>
				<path style="fill:#53A641;" d="M23.006,63.401c-1.247-1.016-2.502-2.025-3.323-3.453c1.696-0.074,2.866,1.322,4.457,1.59
					c0.616,0.104,1.247,0.57,1.812,0.121c0.661-0.526,0.405-1.295,0.249-2.002c-0.137-0.621-0.161-1.276-0.365-1.871
					c-3.158-9.249-7.263-17.991-13.851-25.361c-0.786-0.879-1.786-1.58-2.74-2.291c-1.767-1.319-2.826-0.906-2.974,1.242
					c-0.188,2.724,0.089,5.399,1.354,7.901c1.795,3.549,2.99,7.376,5.114,10.784c0.938,1.505,2.803,2.533,2.594,4.679
					c-2.314-1.366-3.255-3.844-4.478-5.972c-3.537-6.156-5.585-12.925-7.418-19.749c-0.1-0.373-0.032-0.791-0.042-1.188
					c0.863-1.323,0.283-2.805,0.454-4.205c0.367-3.008,1.557-3.701,4.078-2.14c5.21,3.226,9.43,7.441,12.774,12.618
					c2.994,4.635,5.734,9.366,7.926,14.444c2.164,5.015,3.498,10.237,4.395,15.578c0.463,2.756-1.419,4.187-4.103,3.319
					c-0.828-0.268-1.578-0.788-2.498-0.746c0,0-0.013-0.007-0.013-0.007C25.991,64.855,24.679,63.941,23.006,63.401z"/>
				<path style="fill:#77B83F;" d="M39.452,53.146c-0.035-1.037-0.603-1.871-1.048-2.752c-2.18-5.999-5.654-11.345-8.64-16.931
					c-2.117-3.961-4.193-7.986-7.199-11.402c-0.083-1.544-1.644-2.361-1.886-3.827c2.369-1.25,3.349,0.928,4.452,2.076
					c4.598,4.783,8.287,10.224,11.208,16.206c2.52,5.161,4.557,10.468,5.749,16.094c0.253,1.192-0.282,1.62-1.35,1.689
					c-0.144-0.013-0.288-0.032-0.43-0.057C40.294,53.664,39.986,53.317,39.452,53.146z"/>
				<path style="fill:#53A641;" d="M40.739,54.299c1.067-0.069,1.602-0.497,1.35-1.689c-1.193-5.626-3.229-10.933-5.749-16.094
					c-2.921-5.982-6.61-11.423-11.208-16.206c-1.104-1.148-2.084-3.326-4.452-2.076c-1.083-0.658-1.621-1.701-2.008-2.849
					c0.26-1.244,0.759-1.566,1.995-0.838c1.968,1.158,3.355,2.852,4.898,4.465c8.267,8.637,13.95,18.65,16.778,30.297
					c0.637,2.624,1.617,5.166,2.083,7.845c0.126,0.723,0.38,1.466-0.311,1.981c-0.813,0.606-1.253-0.375-1.885-0.571
					C42.14,56.999,41.227,55.723,40.739,54.299z"/>
				<path style="fill:#1F9541;" d="M39.452,53.146c0.534,0.171,0.843,0.518,0.857,1.095C39.67,54.153,39.375,53.795,39.452,53.146z"
					/>
				<path style="fill:#1F9541;" d="M23.006,63.401c1.673,0.54,2.985,1.453,3.403,3.291c-0.322,0.004-0.645,0.009-0.967,0.014
					C24.826,65.46,23.249,64.922,23.006,63.401z"/>
			</g>
			<rect x="-1.448" style="clip-path:url(#SVGID_2_);fill:none;" width="58.932" height="74.87"/>
		</g>
	</g>
	<g>
		<path style="fill:none;stroke:#007136;stroke-width:5;" d="M66.291,83.807c0,17.111-13.542,30.984-30.239,30.984
			c-16.703,0-30.241-13.873-30.241-30.984c0-17.115,13.538-30.985,30.241-30.985C52.749,52.822,66.291,66.692,66.291,83.807z"/>
		<g>
			<path style="fill:#D71921;" d="M66.498,83.807c0,17.229-13.634,31.195-30.446,31.195c-16.816,0-30.447-13.967-30.447-31.195
				c0-17.231,13.631-31.196,30.447-31.196C52.864,52.611,66.498,66.576,66.498,83.807z"/>
			<path style="opacity:0.7;fill:#FFFFFF;" d="M26.096,79.254c-3.309,7.21-9.617,11.308-14.092,9.152
				c-4.473-2.155-5.419-9.748-2.109-16.957c3.305-7.212,9.615-11.31,14.091-9.153C28.461,64.451,29.405,72.043,26.096,79.254z"/>
			<path style="fill:#EC1C24;" d="M22.146,77.606l-1.646,5.25c-0.904,1.714-2.628,2.554-3.841,1.876l-3.078-3.279l-3.825-0.548
				c-1.217-0.675-1.473-2.61-0.566-4.322l3.568-4.628l1.559-5.074c0.904-1.712,2.625-2.552,3.844-1.873l2.46,2.619l4.439,1.206
				c1.219,0.674,1.472,2.612,0.569,4.324L22.146,77.606z"/>
			<path style="fill:#FFFFFF;" d="M21.817,77.632c-1.295,2.677-3.611,4.204-5.178,3.41c-1.57-0.796-1.794-3.609-0.5-6.289
				c1.289-2.678,3.609-4.206,5.18-3.413C22.883,72.137,23.11,74.95,21.817,77.632z"/>
		</g>
	</g>
	<g>
		<path style="fill:none;stroke:#007136;stroke-width:4;" d="M25.541,115.896c0,13.203,10.447,23.904,23.33,23.904
			c12.887,0,23.331-10.701,23.331-23.904c0-13.203-10.444-23.904-23.331-23.904C35.989,91.992,25.541,102.693,25.541,115.896z"/>
		<g>
			<path style="fill:#D71921;" d="M25.382,115.896c0,13.293,10.518,24.068,23.489,24.068c12.975,0,23.49-10.775,23.49-24.068
				c0-13.293-10.516-24.066-23.49-24.066C35.901,91.83,25.382,102.604,25.382,115.896z"/>
			<path style="opacity:0.7;fill:#FFFFFF;" d="M56.551,112.385c2.553,5.562,7.42,8.725,10.873,7.062
				c3.45-1.663,4.18-7.521,1.626-13.083c-2.549-5.564-7.417-8.725-10.87-7.061C54.727,100.965,54,106.821,56.551,112.385z"/>
			<path style="fill:#EC1C24;" d="M59.599,111.113l1.271,4.051c0.696,1.322,2.026,1.971,2.962,1.447l2.376-2.53l2.949-0.422
				c0.939-0.521,1.137-2.014,0.438-3.335l-2.752-3.57l-1.203-3.914c-0.697-1.321-2.025-1.969-2.965-1.445l-1.899,2.019l-3.424,0.931
				c-0.941,0.52-1.137,2.015-0.44,3.336L59.599,111.113z"/>
			<path style="fill:#FFFFFF;" d="M59.854,111.133c0.998,2.065,2.785,3.244,3.994,2.631c1.211-0.613,1.384-2.783,0.385-4.852
				c-0.994-2.065-2.784-3.244-3.996-2.633C59.03,106.895,58.856,109.063,59.854,111.133z"/>
		</g>
	</g>
	<g>
		<g>
			<g>
				<defs>
					<path id="SVGID_3_" d="M129.861,125.518c-0.106-0.547-0.401-1.113-0.631-1.513c-0.195-0.326-0.498-0.673-0.735-0.966
						c-0.641-0.79-1.437-1.454-2.361-1.991c-1.344-0.779-2.96-1.291-4.772-1.536c-6.855-0.928-14.025,1.687-19.839,5.123
						c-6.869,4.077-11.827,9.572-13.825,14.689c-0.666,1.704-1.003,3.365-0.974,4.918c0.02,1.069,0.213,2.087,0.594,3.032
						c0.141,0.348,0.307,0.687,0.498,1.015c0.222,0.364,0.218,0.39,0.213,0.399c-0.004,0.01-0.009,0.003,0.24,0.345
						c2.279,3.13,5.086,3.436,7.343,3.742c5.443,0.737,12.655-0.929,19.554-4.955l0.143-0.085
						c6.942-4.085,11.955-9.622,13.967-14.773c0.592-1.518,0.854-3.547,0.799-5.383
						C130.055,126.846,129.983,126.144,129.861,125.518"/>
				</defs>
				<clipPath id="SVGID_4_">
					<use xlink:href="#SVGID_3_"  style="overflow:visible;"/>
				</clipPath>
				<g style="clip-path:url(#SVGID_4_);">
					<path style="fill:#007B3A;" d="M129.732,125.441c0.707,1.738,0.703,3.375,0.248,5.075c-0.226,0.921-0.343,1.092-0.528,1.638
						c-1.366,4.035-3.751,7.384-6.791,10.249c-6.332,5.968-13.793,9.713-22.476,10.794c-2.832,0.353-5.696,0.159-8.405-0.81
						c-2.694-0.964-4.255-3.108-5.282-5.687c-0.603-1.493-0.534-3.065-0.134-4.495c1.392-4.408,3.691-8.256,7.097-11.408
						c7.194-6.656,15.338-11.149,25.446-11.227C123.62,119.531,127.445,121.046,129.732,125.441z M91.203,135.021
						c-0.332,0.058-0.514,0.249-0.527,0.592c-0.091,0.098-0.183,0.196-0.274,0.294c-1.305,1.297-2.035,2.905-2.343,4.68
						c-0.37,2.131,0.616,3.38,2.796,3.711c0.368,0.056,0.745,0.058,1.114,0.112c0.869,0.127,1.356,0.582,1.248,1.518
						c-0.184,0.1-0.368,0.201-0.552,0.301c-0.382,0.16-0.775,0.296-1.141,0.485c-0.317,0.163-0.749,0.317-0.628,0.789
						c0.114,0.444,0.538,0.439,0.914,0.442c0.328,0.002,0.651-0.019,0.9-0.277c0.461-0.108,0.921-0.215,1.382-0.323
						c1.904,1.639,4.305,1.873,6.542,1.63c2.278-0.247,4.588-1.014,6.681-1.988c4.058-1.888,8.083-3.922,11.439-6.972
						c1.513-1.376,3.09-2.748,4.098-4.569c1.197-2.162,1.826-4.597,3.127-6.721c0.307-0.502,0.694-1.108,0.236-1.694
						c-0.497-0.635-1.114-0.201-1.67-0.019c-1.651,0.542-1.659,0.451-1.623-1.229c0.029-1.356,0.532-2.918-0.523-4.039
						c-0.956-1.014-2.238-1.69-3.746-1.588c-2.65,0.179-5.331,0.319-7.869,1.105c-4.463,1.381-8.712,3.291-12.437,6.165
						c-0.668,0.515-1.737,0.885-1.691,2.062c0,0.176,0,0.352,0,0.528c-0.178,0.026-0.356,0.052-0.534,0.078
						c-0.506-0.472-0.848-0.087-1.167,0.247c-1.12,1.174-2.223,2.364-3.34,3.541C91.306,134.207,91.177,134.582,91.203,135.021z"/>
					<path style="fill:#1F9541;" d="M90.402,135.907c0.091-0.098,0.183-0.196,0.274-0.294c0.188-0.002,0.377-0.003,0.565-0.005
						c0.041,0.538-0.251,0.986-0.393,1.475c-0.461,1.586,0.409,2.662,2.014,2.343c3.111-0.619,6.144-1.491,9.042-2.845
						c2.934-1.372,5.655-3.058,8.316-4.892c2.972-2.048,5.365-4.592,7.162-7.698c0.87-1.503,0.443-2.187-1.324-2.349
						c-0.822-0.076-1.679,0.29-2.469-0.192c1.689-0.704,3.476-0.401,5.212-0.416c1.958-0.017,2.491,1.11,1.598,2.878
						c-1.197,2.369-2.561,4.63-4.128,6.775c-0.327,0.447-0.939,0.962-0.53,1.609c0.356,0.562,1.033,0.191,1.561,0.273
						c-1.947,1.819-4.267,3.105-6.548,4.413c-3.217,1.845-6.286,3.972-9.759,5.353c0.561-1.599,0.397-1.91-1.322-1.621
						c-2.788,0.469-5.549,1.037-8.395,1.15c-0.914,0.036-1.852,0.341-2.379-0.523c-0.445-0.729-0.078-1.579,0.294-2.349
						C89.672,137.998,90.355,137.074,90.402,135.907z"/>
					<path style="fill:#00883F;" d="M117.301,132.569c-0.528-0.082-1.205,0.289-1.561-0.273c-0.409-0.647,0.203-1.162,0.53-1.609
						c1.567-2.145,2.931-4.406,4.128-6.775c0.894-1.768,0.36-2.895-1.598-2.878c-1.736,0.015-3.523-0.288-5.212,0.416
						c-0.232,0.013-0.478-0.02-0.695,0.046c-3.962,1.193-7.888,2.51-11.43,4.688c-1.224,0.753-2.658,1.347-3.417,2.726
						c-0.186,0.186-0.372,0.373-0.559,0.559c-0.278,0.007-0.556,0.013-0.834,0.02c-0.046-1.176,1.023-1.546,1.691-2.061
						c3.726-2.875,7.974-4.784,12.437-6.165c2.538-0.785,5.219-0.925,7.869-1.105c1.507-0.102,2.79,0.574,3.746,1.588
						c1.055,1.12,0.552,2.683,0.523,4.039c-0.036,1.679-0.027,1.77,1.623,1.229c0.556-0.182,1.173-0.616,1.67,0.019
						c0.458,0.586,0.072,1.193-0.236,1.694c-1.301,2.124-1.93,4.558-3.127,6.721c-1.008,1.821-2.585,3.194-4.098,4.569
						c-3.356,3.051-7.381,5.085-11.439,6.972c-2.094,0.974-4.403,1.741-6.681,1.988c-2.237,0.242-4.638,0.009-6.542-1.631
						c2.287-0.456,4.564-0.966,6.862-1.355c4.624-0.783,8.862-2.477,12.78-5.059c3.805-2.508,6.576-6.036,9.518-9.4
						c0.766-0.876,1.41-1.857,2.105-2.794c0.208-0.281,0.294-0.605,0.1-0.918c-0.175-0.282-0.514-0.315-0.751-0.177
						c-1.263,0.735-2.872,0.994-3.564,2.531c-0.666,0.247-1.266,0.58-1.633,1.226C118.654,131.565,118.204,132.493,117.301,132.569z
						"/>
					<path style="fill:#77B83F;" d="M97.488,129.467c0.186-0.186,0.372-0.373,0.559-0.559c1.26,0.084,1.829-1.025,2.693-1.6
						c1.958-1.303,4.176-2.069,6.222-3.182c1.442-0.784,3.003-0.993,4.601-0.931c1.26,0.049,1.52,0.662,0.779,1.719
						c-0.4,0.571-0.793,1.168-1.293,1.644c-4.199,3.985-9.243,6.541-14.602,8.551c-0.345,0.129-0.728,0.155-1.089,0.246
						c-0.411,0.104-0.857,0.267-1.176-0.111c-0.273-0.322-0.011-0.7,0.039-1.062c0.129-0.936,0.926-1.645,0.853-2.636
						c0.2-0.591,1.101-0.677,1.047-1.452c0.178-0.026,0.356-0.052,0.534-0.077C97.412,130.559,97.39,129.921,97.488,129.467z"/>
					<path style="fill:#1F9541;" d="M121.141,130.173c0.693-1.537,2.301-1.796,3.565-2.531c0.238-0.138,0.576-0.105,0.751,0.177
						c0.194,0.313,0.108,0.637-0.1,0.918c-0.694,0.937-1.339,1.919-2.105,2.794c-2.941,3.364-5.712,6.892-9.518,9.4
						c-3.918,2.582-8.156,4.275-12.78,5.059c-2.298,0.389-4.575,0.899-6.862,1.355c-0.461,0.108-0.921,0.215-1.382,0.323
						c-0.343-0.47-0.102-0.957-0.045-1.439c0.184-0.1,0.368-0.201,0.552-0.301c1.182,0.005,1.827-1.352,3.063-1.21
						c-0.104,0.373-0.67,0.648-0.301,1.113c0.313,0.395,0.744,0.234,1.165,0.147c1.56-0.32,3.03-0.937,4.555-1.356
						c6.768-1.859,12.529-5.361,17.44-10.351c0.917-0.932,1.884-1.773,2.528-2.945C122.07,130.59,121.873,130.304,121.141,130.173z"
						/>
					<path style="fill:#00883F;" d="M96.28,144.717c-1.237-0.143-1.881,1.215-3.063,1.21c0.108-0.937-0.379-1.391-1.248-1.518
						c-0.369-0.054-0.745-0.056-1.114-0.112c-2.181-0.331-3.167-1.58-2.796-3.711c0.309-1.775,1.038-3.383,2.343-4.68
						c-0.047,1.168-0.73,2.092-1.21,3.087c-0.372,0.77-0.739,1.62-0.294,2.349c0.528,0.864,1.466,0.559,2.379,0.523
						c2.846-0.113,5.606-0.681,8.395-1.15c1.719-0.289,1.883,0.022,1.322,1.621c-0.508,0.276-0.986,0.623-1.592,0.661
						c-0.381-0.034-0.585,0.146-0.626,0.521c-0.012,0.084-0.021,0.168-0.026,0.253C97.924,144.081,97.194,144.638,96.28,144.717z"/>
					<path style="fill:#00883F;" d="M96.121,130.093c0.054,0.775-0.847,0.86-1.047,1.452c-0.821,0.505-1.39,1.257-1.963,2.005
						c-0.886,0.169-1.173,1.101-1.892,1.483l-0.017-0.013c-0.025-0.438,0.103-0.814,0.412-1.139c1.117-1.177,2.22-2.367,3.34-3.541
						C95.274,130.007,95.616,129.621,96.121,130.093z"/>
					<path style="fill:#00883F;" d="M92.664,146.228c-0.058,0.482-0.299,0.97,0.045,1.439c-0.249,0.258-0.572,0.279-0.9,0.277
						c-0.375-0.003-0.8,0.002-0.914-0.442c-0.121-0.471,0.311-0.625,0.628-0.789C91.89,146.524,92.283,146.388,92.664,146.228z"/>
					<path style="fill:#53A641;" d="M97.488,129.467c-0.099,0.454-0.076,1.092-0.833,0.549c0-0.177,0-0.353-0.001-0.529
						C96.933,129.48,97.21,129.474,97.488,129.467z"/>
					<path style="fill:#00883F;" d="M91.241,135.607c-0.188,0.002-0.377,0.003-0.565,0.005c0.012-0.343,0.195-0.533,0.527-0.592
						c0,0,0.017,0.013,0.017,0.013c0.008,0.189,0.017,0.377,0.025,0.566C91.245,135.6,91.241,135.607,91.241,135.607z"/>
					<path style="fill:#53A641;" d="M93.111,133.55c0.573-0.748,1.142-1.5,1.963-2.005c0.073,0.991-0.724,1.701-0.853,2.637
						c-0.05,0.363-0.312,0.74-0.039,1.062c0.32,0.378,0.765,0.215,1.176,0.111c0.361-0.091,0.744-0.117,1.089-0.246
						c5.359-2.01,10.403-4.566,14.602-8.551c0.501-0.475,0.893-1.073,1.293-1.644c0.741-1.057,0.481-1.67-0.779-1.719
						c-1.598-0.062-3.159,0.147-4.601,0.931c-2.046,1.113-4.265,1.879-6.222,3.182c-0.865,0.576-1.434,1.685-2.693,1.6
						c0.759-1.378,2.193-1.973,3.417-2.726c3.542-2.178,7.468-3.495,11.43-4.688c0.217-0.065,0.462-0.033,0.695-0.046
						c0.79,0.482,1.647,0.117,2.469,0.192c1.767,0.162,2.193,0.846,1.324,2.349c-1.797,3.106-4.191,5.65-7.162,7.698
						c-2.66,1.834-5.382,3.52-8.316,4.892c-2.897,1.355-5.931,2.227-9.042,2.845c-1.605,0.319-2.476-0.757-2.014-2.343
						c0.142-0.49,0.434-0.937,0.393-1.475c0,0,0.004-0.008,0.004-0.008C92.313,135.323,92.825,134.539,93.111,133.55z"/>
					<path style="fill:#77B83F;" d="M99.402,142.997c0.606-0.039,1.085-0.386,1.592-0.661c3.473-1.381,6.542-3.508,9.759-5.353
						c2.281-1.308,4.601-2.594,6.548-4.413c0.903-0.076,1.353-1.004,2.207-1.171c0.773,1.365-0.484,1.976-1.137,2.642
						c-2.719,2.775-5.839,5.029-9.29,6.844c-2.977,1.566-6.048,2.85-9.32,3.647c-0.693,0.169-0.953-0.137-1.012-0.76
						c0.005-0.085,0.014-0.169,0.026-0.253C99.113,143.499,99.311,143.313,99.402,142.997z"/>
					<path style="fill:#53A641;" d="M98.75,143.771c0.059,0.624,0.319,0.929,1.012,0.76c3.272-0.797,6.343-2.081,9.32-3.647
						c3.45-1.815,6.571-4.069,9.29-6.844c0.653-0.666,1.91-1.278,1.137-2.642c0.366-0.645,0.967-0.979,1.633-1.225
						c0.733,0.131,0.93,0.417,0.526,1.153c-0.644,1.172-1.611,2.014-2.528,2.945c-4.911,4.99-10.673,8.491-17.44,10.351
						c-1.525,0.419-2.995,1.037-4.555,1.356c-0.421,0.086-0.851,0.248-1.165-0.147c-0.369-0.465,0.198-0.74,0.301-1.113
						C97.194,144.638,97.924,144.081,98.75,143.771z"/>
					<path style="fill:#1F9541;" d="M99.402,142.997c-0.091,0.316-0.288,0.502-0.626,0.521
						C98.816,143.143,99.02,142.964,99.402,142.997z"/>
					<path style="fill:#1F9541;" d="M93.111,133.55c-0.287,0.989-0.799,1.773-1.867,2.049c-0.008-0.189-0.017-0.377-0.025-0.566
						C91.938,134.651,92.226,133.719,93.111,133.55z"/>
				</g>
				
					<rect x="86.476" y="118.775" transform="matrix(0.9996 -0.0299 0.0299 0.9996 -4.0154 3.299)" style="clip-path:url(#SVGID_4_);fill:none;" width="43.843" height="34.51"/>
			</g>
		</g>
	</g>
</g>
</svg>
